<?xml version="1.0" encoding="utf-8"?>
<!-- Generator: Adobe Illustrator 24.1.2, SVG Export Plug-In . SVG Version: 6.00 Build 0)  -->
<svg version="1.1" id="Layer_1" xmlns="http://www.w3.org/2000/svg" xmlns:xlink="http://www.w3.org/1999/xlink" x="0px" y="0px"
	 viewBox="0 0 121 91" style="enable-background:new 0 0 121 91;" xml:space="preserve">
<style type="text/css">
	.st0{opacity:0.75;}
	.st1{fill:#CCCCCC;}
	.st2{fill:#FFFFFF;}
	.st3{fill:#CCCCCC;stroke:#041319;stroke-width:3.9722;stroke-linejoin:round;}
	.st4{fill:#FFFFFF;stroke:#37464C;stroke-width:3.9722;stroke-linejoin:round;}
	.st5{opacity:0.7;}
</style>
<g>
	<g>
		<g class="st0">
			<path class="st1" d="M114.39,45.59l-5.6,3.5c-3.82,2.39-7.1,5.12-9.81,8.09c-0.26-0.23-0.49-0.49-0.79-0.69l-15-10.32
				c2.65-0.26,5.36-1.19,7.85-3.28l-2.75-3.28c-5.63,4.72-12.44,1.31-14.31,0.22l-1.21-0.83l-11.8-8.68
				c-1.31-0.97-2.99-1.35-4.59-1.05c-1.6,0.3-3.02,1.26-3.9,2.63l-2.78,4.36c-2.46,3.84-6.85,7.18-11.85,5.04
				c-0.32-0.14-1.08-0.51-1.18-0.94c-0.12-0.56,0.48-1.62,1.07-2.29l9.43-12.62c1.68-2.12,4.19-3.38,7.04-3.46
				c0.14-0.02,14.28-1.37,32.09,4.25l0.9,0.28l0.82-0.47c0.6-0.34,14.86-8.56,25.2-18.68l-2.99-3.05
				c-8.59,8.4-20.39,15.68-23.54,17.56c-18.27-5.58-32.31-4.21-32.74-4.16c-3.58,0.1-6.89,1.68-9.35,4.31l-5.02,0.27
				c-1.65,0.08-3.25-0.25-4.67-0.99c-0.12-0.08-11.68-8.19-20.36-15.61l-2.79,3.25c8.83,7.55,20.57,15.78,20.69,15.86l0.42,0.24
				c1.9,1.01,4.02,1.54,6.15,1.54c0.27,0,0.54-0.01,0.8-0.02l1.24-0.07l-6.6,8.85c-0.27,0.29-2.6,2.95-1.96,5.91
				c0.26,1.2,1.11,2.87,3.67,3.97c6.14,2.63,12.87,0.01,17.14-6.68l2.79-4.36c0.24-0.38,0.62-0.64,1.07-0.72
				c0.45-0.08,0.9,0.02,1.26,0.29l11.36,8.35l-0.01,0.01l0.43,0.3l0.8,0.58c0.1,0.07,0.25,0.14,0.35,0.21l24.4,16.79
				c0.95,0.65,1.53,1.68,1.53,2.69c0,0.89-0.35,1.73-0.97,2.36c-1.11,1.11-2.86,1.29-4.17,0.43c-1.07-0.71-20.23-13.95-20.23-13.95
				l-2.43,3.52c0,0,1.66,1.14,4,2.76l-0.02,0.03l18.45,12.7c0.59,0.59,0.91,1.52,0.88,2.55c-0.04,1.04-0.44,2.05-1.08,2.69
				c-1.11,1.12-2.87,1.29-4.19,0.43c-0.19-0.12-0.97-0.66-2.1-1.44c-0.07-0.07-0.12-0.15-0.19-0.22L66.2,61.4l-2.43,3.52l0.09,0.06
				l-0.05,0.07c0,0,13.19,9.13,18.85,13.03c1.08,1.3,1.06,3.23-0.17,4.45c-1.11,1.12-2.88,1.3-4.18,0.43c-0.4-0.27-4.32-2.96-8.74-6
				c-0.06-0.06-0.11-0.13-0.17-0.2l-11.76-8.01c-0.85-0.58-1.39-0.96-1.39-0.96l0,0.01l-0.62-0.42l-2.41,3.53l0.97,0.66
				c1.45,1,7.34,5.05,12.66,8.7c1.1,1.3,1.07,3.25-0.15,4.47c-1.12,1.12-2.87,1.3-4.19,0.43c-0.71-0.47-5.08-3.46-7.29-4.97
				c-0.12-1.92-0.77-3.84-2.19-5.38c-0.96-1.05-2.54-1.68-4.08-1.96c0.58-2.83-0.45-5.87-2.92-7.7c-1.03-0.76-2.22-1.2-3.46-1.37
				c1.66-3.27,0.79-7.36-2.25-9.61c-1.62-1.21-3.65-1.7-5.69-1.4c-1.22,0.18-2.32,0.66-3.29,1.34c-0.52-1.17-1.31-2.24-2.41-3.06
				c-1.63-1.21-3.64-1.7-5.69-1.4c-1.52,0.23-2.9,0.88-4,1.87c-1.82-2.02-6.05-5.98-15.74-12.9L1,42.13
				c11.36,8.12,14.72,11.82,15.53,12.83l-3.06,4.15c-2.51,3.39-1.79,8.19,1.6,10.7c1.16,0.86,2.53,1.29,3.95,1.4
				c-0.9,3,0.09,6.38,2.75,8.35c1.32,0.98,2.89,1.49,4.52,1.49c0.38,0,0.78-0.03,1.16-0.09c0.73-0.11,1.41-0.34,2.06-0.64
				c0.49,1.39,1.38,2.65,2.65,3.59c1.32,0.98,2.89,1.49,4.53,1.49c0.39,0,0.77-0.03,1.16-0.09c0.75-0.11,1.44-0.36,2.1-0.66
				c0.48,1.45,1.38,2.77,2.69,3.74c1.32,0.98,2.89,1.5,4.52,1.5c0.39,0,0.78-0.03,1.17-0.09c2.03-0.3,3.82-1.37,5.03-3
				c0.42-0.57,0.76-1.24,1.05-1.93c2.28,1.56,5.15,3.52,5.72,3.89c1.27,0.84,2.73,1.25,4.18,1.25c1.97,0,3.93-0.76,5.4-2.22
				c1.13-1.13,1.84-2.54,2.1-4.08c2.25,1.55,3.88,2.66,4.13,2.83c1.27,0.84,2.73,1.25,4.18,1.25c1.97,0,3.93-0.76,5.4-2.22
				c1.32-1.32,2.02-3.01,2.14-4.76c0.55,0.12,1.11,0.24,1.67,0.24c1.97,0,3.93-0.76,5.4-2.22c2.28-2.28,2.88-5.93,1.64-8.93
				c1.09-0.36,2.12-0.95,2.97-1.8c1.43-1.44,2.23-3.35,2.23-5.38c0-0.6-0.08-1.2-0.23-1.78c2.59-3.04,5.84-5.8,9.71-8.21l5.6-3.5
				L114.39,45.59z M16.91,61.64l4.75-6.42c0.52-0.71,1.31-1.17,2.22-1.31c0.18-0.03,0.36-0.04,0.53-0.04c0.72,0,1.4,0.22,1.97,0.64
				c1.5,1.11,1.81,3.22,0.71,4.72l-4.74,6.43c-0.53,0.71-1.31,1.17-2.22,1.31c-0.89,0.13-1.78-0.08-2.5-0.61
				C16.12,65.26,15.8,63.14,16.91,61.64z M26.82,76.72c-0.89,0.14-1.78-0.08-2.5-0.61c-1.5-1.11-1.81-3.23-0.69-4.75l9.42-13.04
				c0.52-0.71,1.31-1.17,2.22-1.31c0.18-0.02,0.36-0.04,0.53-0.04c0.72,0,1.4,0.22,1.97,0.64c1.5,1.11,1.81,3.23,0.69,4.75
				l-4.86,6.72l-3.04,4.11c-0.12,0.16-0.2,0.34-0.3,0.51l-1.23,1.7C28.51,76.12,27.72,76.59,26.82,76.72z M37.22,81.08
				c-0.91,0.13-1.8-0.09-2.51-0.61c-1.41-1.05-1.73-2.99-0.83-4.46l3.26-4.52l1.61-2.18c0.52-0.71,1.31-1.17,2.21-1.31
				c0.91-0.13,1.79,0.08,2.5,0.61c1.5,1.11,1.81,3.23,0.7,4.73l-1.64,2.22c-0.04,0.06-0.08,0.11-0.13,0.17l-2.98,4.03
				C38.91,80.48,38.12,80.94,37.22,81.08z M49.92,84.25c-0.53,0.71-1.32,1.18-2.22,1.31c-0.9,0.13-1.79-0.08-2.5-0.61
				c-1.5-1.11-1.81-3.23-0.71-4.72c0.18-0.24,0.39-0.54,0.61-0.88c0.43-0.63,1.42-2.08,1.94-2.39c0.94-0.14,2.43,0.34,2.82,0.76
				C51.48,79.49,51.2,82.52,49.92,84.25z"/>
		</g>
		<g>
			<path class="st2" d="M117.73,42.25l-5.6,3.5c-3.82,2.39-7.1,5.12-9.81,8.09c-0.26-0.23-0.49-0.49-0.79-0.69l-15-10.32
				c2.65-0.26,5.36-1.19,7.85-3.28l-2.75-3.28C86,41,79.19,37.6,77.32,36.51l-1.21-0.83L64.31,27c-1.31-0.97-2.99-1.35-4.59-1.05
				c-1.6,0.3-3.02,1.26-3.9,2.63l-2.78,4.36c-2.46,3.84-6.85,7.18-11.85,5.04c-0.32-0.14-1.08-0.51-1.18-0.94
				c-0.12-0.56,0.48-1.62,1.07-2.29l9.43-12.62c1.68-2.12,4.19-3.38,7.04-3.46c0.14-0.02,14.28-1.37,32.09,4.25l0.9,0.28l0.82-0.47
				c0.6-0.34,14.86-8.56,25.2-18.68L113.57,1c-8.59,8.4-20.39,15.68-23.54,17.56c-18.27-5.58-32.31-4.21-32.74-4.16
				c-3.58,0.1-6.89,1.68-9.35,4.31l-5.02,0.27c-1.65,0.08-3.25-0.25-4.67-0.99C38.12,17.91,26.56,9.8,17.88,2.38L15.1,5.63
				c8.83,7.55,20.57,15.78,20.69,15.86l0.42,0.24c1.9,1.01,4.02,1.54,6.15,1.54c0.27,0,0.54-0.01,0.8-0.02l1.24-0.07l-6.6,8.85
				c-0.27,0.29-2.6,2.95-1.96,5.91c0.26,1.2,1.11,2.87,3.67,3.97c6.14,2.63,12.87,0.01,17.14-6.68l2.79-4.36
				c0.24-0.38,0.62-0.64,1.07-0.72c0.45-0.08,0.9,0.02,1.26,0.29l11.36,8.35l-0.01,0.01l0.43,0.3l0.8,0.58
				c0.1,0.07,0.25,0.14,0.35,0.21l24.4,16.79c0.95,0.65,1.53,1.68,1.53,2.69c0,0.89-0.35,1.73-0.97,2.36
				c-1.11,1.11-2.86,1.29-4.17,0.43C94.42,61.44,75.26,48.2,75.26,48.2l-2.43,3.52c0,0,1.66,1.14,4,2.76L76.8,54.5l18.45,12.7
				c0.59,0.59,0.91,1.52,0.88,2.55c-0.04,1.04-0.44,2.05-1.08,2.69c-1.11,1.12-2.87,1.29-4.19,0.43c-0.19-0.12-0.97-0.66-2.1-1.44
				c-0.07-0.07-0.12-0.15-0.19-0.22L69.54,58.05l-2.43,3.52l0.09,0.06l-0.05,0.07c0,0,13.19,9.13,18.85,13.03
				c1.08,1.3,1.06,3.23-0.17,4.45c-1.11,1.12-2.88,1.3-4.18,0.43c-0.4-0.27-4.32-2.96-8.74-6c-0.06-0.06-0.11-0.13-0.17-0.2
				l-11.76-8.01c-0.85-0.58-1.39-0.96-1.39-0.96l0,0.01l-0.62-0.42l-2.41,3.53l0.97,0.66c1.45,1,7.34,5.05,12.66,8.7
				c1.1,1.3,1.07,3.25-0.15,4.47c-1.12,1.12-2.87,1.3-4.19,0.43c-0.71-0.47-5.08-3.46-7.29-4.97c-0.12-1.92-0.77-3.84-2.19-5.38
				c-0.96-1.05-2.54-1.68-4.08-1.96c0.58-2.83-0.45-5.87-2.92-7.7c-1.03-0.76-2.22-1.2-3.46-1.37c1.66-3.27,0.79-7.36-2.25-9.61
				c-1.62-1.21-3.65-1.7-5.69-1.4c-1.22,0.18-2.32,0.66-3.29,1.34c-0.52-1.17-1.31-2.24-2.41-3.06c-1.63-1.21-3.64-1.7-5.69-1.4
				c-1.52,0.23-2.9,0.88-4,1.87c-1.82-2.02-6.05-5.98-15.74-12.9l-2.49,3.48C15.71,46.9,19.07,50.6,19.88,51.61l-3.06,4.15
				c-2.51,3.39-1.79,8.19,1.6,10.7c1.16,0.86,2.53,1.29,3.95,1.4c-0.9,3,0.09,6.38,2.75,8.35c1.32,0.98,2.89,1.49,4.52,1.49
				c0.38,0,0.78-0.03,1.16-0.09c0.73-0.11,1.41-0.34,2.06-0.64c0.49,1.39,1.38,2.65,2.65,3.59c1.32,0.98,2.89,1.49,4.53,1.49
				c0.39,0,0.77-0.03,1.16-0.09c0.75-0.11,1.44-0.36,2.1-0.66c0.48,1.45,1.38,2.77,2.69,3.74c1.32,0.98,2.89,1.5,4.52,1.5
				c0.39,0,0.78-0.03,1.17-0.09c2.03-0.3,3.82-1.37,5.03-3c0.42-0.57,0.76-1.24,1.05-1.93c2.28,1.56,5.15,3.52,5.72,3.89
				c1.27,0.84,2.73,1.25,4.18,1.25c1.97,0,3.93-0.76,5.4-2.22c1.13-1.13,1.84-2.54,2.1-4.08c2.25,1.55,3.88,2.66,4.13,2.83
				c1.27,0.84,2.73,1.25,4.18,1.25c1.97,0,3.93-0.76,5.4-2.22c1.32-1.32,2.02-3.01,2.14-4.76c0.55,0.12,1.11,0.24,1.67,0.24
				c1.97,0,3.93-0.76,5.4-2.22c2.28-2.28,2.88-5.93,1.64-8.93c1.09-0.36,2.12-0.95,2.97-1.8c1.43-1.44,2.23-3.35,2.23-5.38
				c0-0.6-0.08-1.2-0.23-1.78c2.59-3.04,5.84-5.8,9.71-8.21l5.6-3.5L117.73,42.25z M20.26,58.3l4.75-6.42
				c0.52-0.71,1.31-1.17,2.22-1.31c0.18-0.03,0.36-0.04,0.53-0.04c0.72,0,1.4,0.22,1.97,0.64c1.5,1.11,1.81,3.22,0.71,4.72
				l-4.74,6.43c-0.53,0.71-1.31,1.17-2.22,1.31c-0.89,0.13-1.78-0.08-2.5-0.61C19.47,61.91,19.15,59.8,20.26,58.3z M30.16,73.38
				c-0.89,0.14-1.78-0.08-2.5-0.61c-1.5-1.11-1.81-3.23-0.69-4.75l9.42-13.04c0.52-0.71,1.31-1.17,2.22-1.31
				c0.18-0.02,0.36-0.04,0.53-0.04c0.72,0,1.4,0.22,1.97,0.64c1.5,1.11,1.81,3.23,0.69,4.75l-4.86,6.72l-3.04,4.11
				c-0.12,0.16-0.2,0.34-0.3,0.51l-1.23,1.7C31.85,72.78,31.07,73.25,30.16,73.38z M40.57,77.74c-0.91,0.13-1.8-0.09-2.51-0.61
				c-1.41-1.05-1.73-2.99-0.83-4.46l3.26-4.52l1.61-2.18c0.52-0.71,1.31-1.17,2.21-1.31c0.91-0.13,1.79,0.08,2.5,0.61
				c1.5,1.11,1.81,3.23,0.7,4.73l-1.64,2.22c-0.04,0.06-0.08,0.11-0.13,0.17l-2.98,4.03C42.25,77.13,41.47,77.6,40.57,77.74z
				 M53.27,80.91c-0.53,0.71-1.32,1.18-2.22,1.31c-0.9,0.13-1.79-0.08-2.5-0.61c-1.5-1.11-1.81-3.23-0.71-4.72
				c0.18-0.24,0.39-0.54,0.61-0.88c0.43-0.63,1.42-2.08,1.94-2.39c0.94-0.14,2.43,0.34,2.82,0.76
				C54.83,76.14,54.54,79.18,53.27,80.91z"/>
		</g>
	</g>
</g>
</svg>
