<?xml version="1.0" encoding="utf-8"?>
<!-- Generator: Adobe Illustrator 24.1.2, SVG Export Plug-In . SVG Version: 6.00 Build 0)  -->
<svg version="1.1" id="Layer_1" xmlns="http://www.w3.org/2000/svg" xmlns:xlink="http://www.w3.org/1999/xlink" x="0px" y="0px"
	 viewBox="0 0 132 112" style="enable-background:new 0 0 132 112;" xml:space="preserve">
<style type="text/css">
	.st0{opacity:0.75;}
	.st1{fill:#CCCCCC;}
	.st2{fill:#FFFFFF;}
	.st3{fill:#CCCCCC;stroke:#041319;stroke-width:3.9722;stroke-linejoin:round;}
	.st4{fill:#FFFFFF;stroke:#37464C;stroke-width:3.9722;stroke-linejoin:round;}
	.st5{opacity:0.7;}
</style>
<g>
	<g class="st0">
		<path class="st1" d="M41.78,71.19c-1.45-0.29-2.98-0.51-4.55-0.66c-1.62-0.15-3.12-0.84-4.23-1.95l-9.8-9.82
			c-1.58-1.59-3.67-2.4-5.75-2.44l-2.4-18.31c-0.46-3.51-3.47-6.15-7-6.15C4.17,31.87,1,35.04,1,38.94v34.7
			c0,2.77,1.01,5.44,2.85,7.51l15.76,17.78l3.37-3.01L7.22,78.15c-1.1-1.24-1.71-2.84-1.71-4.51v-34.7c0-1.41,1.15-2.55,2.55-2.55
			c1.27,0,2.36,0.96,2.53,2.22l2.48,18.95c-0.22,0.14-0.45,0.27-0.66,0.44c-1.73,1.42-2.79,3.51-2.9,5.74
			c-0.11,2.23,0.73,4.41,2.3,5.99l15.69,15.74l3.19-3.2L15.01,66.53c-0.67-0.68-1.03-1.61-0.99-2.57c0.05-0.97,0.49-1.84,1.25-2.47
			c1.32-1.08,3.4-0.88,4.75,0.47l9.8,9.82c1.85,1.85,4.34,3.01,7,3.25c1.41,0.13,2.78,0.33,4.07,0.59
			c8.24,1.66,14.23,9.1,14.23,17.69V111h4.51V93.32C59.63,82.58,52.12,73.28,41.78,71.19z M120.21,31.87c-3.53,0-6.54,2.65-7,6.15
			l-2.4,18.3c-2.07,0.05-4.16,0.85-5.74,2.44l-9.81,9.84c-1.1,1.1-2.59,1.79-4.2,1.94c-1.61,0.15-3.18,0.38-4.68,0.68
			c-10.28,2.11-17.73,11.4-17.73,22.09V111h4.51V93.31c0-8.56,5.94-15.99,14.13-17.66c1.33-0.27,2.74-0.48,4.18-0.61
			c2.66-0.24,5.14-1.39,6.99-3.24l9.81-9.84c1.34-1.34,3.42-1.55,4.74-0.46c0.76,0.62,1.2,1.5,1.25,2.47
			c0.05,0.96-0.31,1.89-0.99,2.57L97.58,82.27l3.19,3.2l15.69-15.74c1.57-1.58,2.41-3.76,2.3-5.99c-0.11-2.23-1.17-4.32-2.9-5.74
			c-0.21-0.17-0.44-0.29-0.66-0.43l2.48-18.95c0.17-1.27,1.26-2.22,2.53-2.22c1.41,0,2.55,1.15,2.55,2.55v34.7
			c0,1.66-0.61,3.26-1.71,4.51L105.3,95.93l3.37,3.01l15.76-17.78c1.84-2.07,2.85-4.74,2.85-7.51v-34.7
			C127.28,35.04,124.11,31.87,120.21,31.87z M97.98,46.23c8.97-9.46,8.97-24.86,0-34.32C93.6,7.28,87.77,4.73,81.56,4.73
			c-6.21,0-12.04,2.55-16.42,7.16c-0.35,0.36-0.68,0.74-1.01,1.13c-0.32-0.39-0.66-0.77-1.01-1.13c-4.38-4.62-10.21-7.17-16.42-7.17
			c0,0,0,0,0,0c-6.21,0-12.04,2.55-16.42,7.17c-8.97,9.46-8.97,24.86,0.1,34.42L62.6,76.48c0.43,0.41,0.99,0.61,1.54,0.61
			c0.55,0,1.11-0.2,1.54-0.61l32.21-30.15C97.92,46.29,97.95,46.26,97.98,46.23z M64.14,71.73L33.56,43.11
			c-7.34-7.75-7.34-20.35,0-28.1c3.52-3.72,8.19-5.76,13.15-5.76c4.96,0,9.63,2.05,13.15,5.76c0.87,0.92,1.66,1.94,2.36,3.06
			c0.41,0.66,1.13,1.06,1.91,1.06h0c0.77,0,1.49-0.4,1.91-1.05c0.7-1.12,1.5-2.15,2.37-3.06c3.52-3.72,8.19-5.76,13.15-5.76
			c4.96,0,9.63,2.05,13.15,5.76c7.33,7.73,7.34,20.3,0.05,28.05L64.14,71.73z M80.58,25.75L64.14,42.23l-7.42-7.45l-3.19,3.2
			l9.02,9.04c0.44,0.44,1.02,0.66,1.59,0.66c0.58,0,1.15-0.22,1.59-0.66l18.04-18.09L80.58,25.75z"/>
	</g>
	<g>
		<path class="st2" d="M45.5,67.46c-1.45-0.29-2.98-0.51-4.55-0.66c-1.62-0.15-3.12-0.84-4.23-1.95l-9.8-9.82
			c-1.58-1.59-3.67-2.4-5.75-2.44l-2.4-18.31c-0.46-3.51-3.47-6.15-7-6.15c-3.89,0-7.06,3.18-7.06,7.08v34.7
			c0,2.77,1.01,5.44,2.85,7.51L23.33,95.2l3.37-3.01L10.94,74.42c-1.1-1.24-1.71-2.84-1.71-4.51v-34.7c0-1.41,1.15-2.55,2.55-2.55
			c1.27,0,2.36,0.96,2.53,2.22l2.48,18.95c-0.22,0.14-0.45,0.27-0.66,0.44c-1.73,1.42-2.79,3.51-2.9,5.74
			c-0.11,2.23,0.73,4.41,2.3,5.99l15.69,15.74l3.19-3.2L18.73,62.8c-0.67-0.68-1.03-1.61-0.99-2.57c0.05-0.97,0.49-1.84,1.25-2.47
			c1.32-1.08,3.4-0.88,4.75,0.47l9.8,9.82c1.85,1.85,4.34,3.01,7,3.25c1.41,0.13,2.78,0.33,4.07,0.59
			c8.24,1.66,14.23,9.1,14.23,17.69v17.68h4.51V89.58C63.35,78.85,55.85,69.55,45.5,67.46z M123.94,28.13c-3.53,0-6.54,2.65-7,6.15
			l-2.4,18.3c-2.07,0.05-4.16,0.85-5.74,2.44l-9.81,9.84c-1.1,1.1-2.59,1.79-4.2,1.94c-1.61,0.15-3.18,0.38-4.68,0.68
			c-10.28,2.11-17.73,11.4-17.73,22.09v17.69h4.51V89.58c0-8.56,5.94-15.99,14.13-17.66c1.33-0.27,2.74-0.48,4.18-0.61
			c2.66-0.24,5.14-1.39,6.99-3.24l9.81-9.84c1.34-1.34,3.42-1.55,4.74-0.46c0.76,0.62,1.2,1.5,1.25,2.47
			c0.05,0.96-0.31,1.89-0.99,2.57L101.3,78.54l3.19,3.2L120.18,66c1.57-1.58,2.41-3.76,2.3-5.99c-0.11-2.23-1.17-4.32-2.9-5.74
			c-0.21-0.17-0.44-0.29-0.66-0.43l2.48-18.95c0.17-1.27,1.26-2.22,2.53-2.22c1.41,0,2.55,1.15,2.55,2.55v34.7
			c0,1.66-0.61,3.26-1.71,4.51L109.02,92.2l3.37,3.01l15.76-17.78c1.84-2.07,2.85-4.74,2.85-7.51v-34.7
			C131,31.31,127.83,28.13,123.94,28.13z M101.71,42.49c8.97-9.46,8.97-24.86,0-34.32C97.33,3.55,91.5,1,85.29,1
			c-6.21,0-12.04,2.55-16.42,7.16c-0.35,0.36-0.68,0.74-1.01,1.13c-0.32-0.39-0.66-0.77-1.01-1.13C62.48,3.55,56.65,1,50.44,1
			c0,0,0,0,0,0C44.23,1,38.4,3.55,34.02,8.17c-8.97,9.46-8.97,24.86,0.1,34.42l32.21,30.15c0.43,0.41,0.99,0.61,1.54,0.61
			c0.55,0,1.11-0.2,1.54-0.61l32.21-30.15C101.64,42.56,101.68,42.53,101.71,42.49z M67.86,68L37.29,39.38
			c-7.34-7.75-7.34-20.35,0-28.1c3.52-3.72,8.19-5.76,13.15-5.76c4.96,0,9.63,2.05,13.15,5.76c0.87,0.92,1.66,1.94,2.36,3.06
			c0.41,0.66,1.13,1.06,1.91,1.06h0c0.77,0,1.49-0.4,1.91-1.05c0.7-1.12,1.5-2.15,2.37-3.06c3.52-3.72,8.19-5.76,13.15-5.76
			c4.96,0,9.63,2.05,13.15,5.76c7.33,7.73,7.34,20.3,0.05,28.05L67.86,68z M84.31,22.01L67.86,38.5l-7.42-7.45l-3.19,3.2l9.02,9.04
			c0.44,0.44,1.02,0.66,1.59,0.66c0.58,0,1.15-0.22,1.59-0.66L87.5,25.21L84.31,22.01z"/>
	</g>
</g>
</svg>
