<?xml version="1.0" encoding="utf-8"?>
<!-- Generator: Adobe Illustrator 24.3.0, SVG Export Plug-In . SVG Version: 6.00 Build 0)  -->
<svg version="1.1" id="Layer_1" xmlns="http://www.w3.org/2000/svg" xmlns:xlink="http://www.w3.org/1999/xlink" x="0px" y="0px"
	 viewBox="0 0 240 84" style="enable-background:new 0 0 240 84;" xml:space="preserve">
<style type="text/css">
	.st0{opacity:0.8;fill:#FFFFFF;}
	.st1{fill:none;}
	.st2{fill:#2B1C6B;}
	.st3{font-family:'Frutiger-Bold';}
	.st4{font-size:16.997px;}
</style>
<g>
	<path class="st0" d="M197.91,72.76H38.92c-17.31,0-31.47-14.16-31.47-31.47v0c0-17.31,14.16-31.47,31.47-31.47h158.98
		c17.31,0,31.47,14.16,31.47,31.47v0C229.38,58.6,215.22,72.76,197.91,72.76z"/>
	<rect x="8.51" y="34.71" class="st1" width="200.79" height="12.87"/>
	<text transform="matrix(1 0 0 1 38.5354 47.4619)" class="st2 st3 st4">KEEP SCROLLING</text>
	<g>
		<polygon class="st2" points="190.45,35.13 190.45,37.48 194.12,41.15 190.45,44.82 190.45,47.17 196.47,41.15 		"/>
		<polygon class="st2" points="195.25,35.13 195.25,37.48 198.92,41.15 195.25,44.82 195.25,47.17 201.27,41.15 		"/>
	</g>
</g>
</svg>
