<?xml version="1.0" encoding="utf-8"?>
<!-- Generator: Adobe Illustrator 24.2.1, SVG Export Plug-In . SVG Version: 6.00 Build 0)  -->
<svg version="1.1" id="Layer_1" xmlns="http://www.w3.org/2000/svg" xmlns:xlink="http://www.w3.org/1999/xlink" x="0px" y="0px"
	 viewBox="0 0 128 114" style="enable-background:new 0 0 128 114;" xml:space="preserve">
<style type="text/css">
	.st0{opacity:0.7;}
	.st1{opacity:0.1;}
	.st2{fill:#FFFFFF;}
</style>
<g>
	<g class="st0">
		<path class="st1" d="M86.3,30c1.7-1.7,2.3-4.2,1.6-6.4c-0.8-2.3-2.7-3.9-5.1-4.3l-10.2-1.5c-0.2,0-0.3-0.1-0.4-0.3l-4.6-9.2
			c-1.1-2.2-3.2-3.5-5.6-3.5c-2.4,0-4.6,1.3-5.7,3.5l-4.6,9.2c-0.1,0.2-0.2,0.2-0.4,0.3l-10.2,1.5c-2.4,0.3-4.3,2-5.1,4.3
			c-0.8,2.3-0.1,4.8,1.6,6.4l7.4,7.2c0.1,0.1,0.2,0.3,0.1,0.4l-1.7,10.1c-0.4,2.4,0.6,4.7,2.5,6.1c2,1.4,4.5,1.6,6.6,0.5l6.4-3.4
			v59.1c0,1.6,1.3,2.9,2.9,2.9h0.1c1.6,0,2.9-1.3,2.9-2.9V51l6.4,3.4c0.9,0.5,1.9,0.7,2.9,0.7c1.3,0,2.6-0.4,3.7-1.2
			c2-1.4,2.9-3.8,2.5-6.1l-1.7-10.1c0-0.2,0-0.3,0.1-0.4L86.3,30z M74.9,33c-1.5,1.4-2.2,3.5-1.8,5.6l1.7,10.1c0,0.1,0,0.3-0.2,0.5
			c-0.2,0.2-0.4,0.1-0.5,0L65,44.4c-0.9-0.5-1.9-0.7-2.9-0.7s-2,0.2-3,0.7L50,49.2c-0.1,0-0.3,0.1-0.5,0c-0.2-0.2-0.2-0.4-0.2-0.5
			L51,38.6c0.3-2-0.3-4.1-1.8-5.6l-7.4-7.2c0,0-0.2-0.2-0.1-0.5c0.1-0.3,0.3-0.3,0.4-0.3l10.2-1.5c2-0.3,3.8-1.6,4.8-3.4l4.6-9.2
			c0-0.1,0.1-0.3,0.4-0.3s0.4,0.2,0.4,0.3l4.6,9.2c0.9,1.9,2.7,3.1,4.8,3.4L82,25c0.1,0,0.3,0,0.4,0.3c0.1,0.3-0.1,0.5-0.1,0.5
			L74.9,33z"/>
		<path class="st1" d="M85.4,113L85.4,113c-1.7,0-3-1.3-3-2.9V98.5c0-8.5,3.3-16.5,9.4-22.6c1.1-1.1,3-1.1,4.1,0
			c1.1,1.1,1.2,3,0,4.1C91,85,88.3,91.6,88.3,98.5v11.6C88.3,111.7,87,113,85.4,113z M85.4,110.1L85.4,110.1L85.4,110.1z"/>
		<path class="st1" d="M107.1,77.7c-1.6,0-3.2-0.8-4.1-2.1l-3.5-5l-6.1,0.1c0,0,0,0-0.1,0c-1.9,0-3.6-1.1-4.5-2.8
			c-0.9-1.7-0.7-3.8,0.4-5.3l3.7-4.9l-2-5.8c-0.6-1.8-0.2-3.8,1.2-5.2c1.4-1.4,3.4-1.8,5.2-1.2l5.8,2l4.9-3.6
			c1.6-1.2,3.6-1.3,5.3-0.5c1.7,0.9,2.8,2.6,2.8,4.5l-0.1,6.1l5,3.5c1.6,1.1,2.4,3,2.1,4.9c-0.3,1.9-1.6,3.5-3.5,4l-5.8,1.8
			l-1.8,5.8c-0.6,1.8-2.1,3.2-4,3.5C107.7,77.7,107.4,77.7,107.1,77.7z M99.9,64.8c1.6,0,3.2,0.8,4.1,2.1l2.9,4l1.5-4.7l0,0
			c0.5-1.6,1.7-2.8,3.3-3.3l4.7-1.5l-4.1-2.8c-1.4-1-2.2-2.5-2.1-4.2l0.1-5l-4,3c-1.3,1-3.1,1.3-4.7,0.7l-4.7-1.6l1.6,4.7
			c0.5,1.6,0.3,3.3-0.7,4.6l-3,4L99.9,64.8C99.8,64.8,99.8,64.8,99.9,64.8z M113.9,68L113.9,68L113.9,68L113.9,68z"/>
		<path class="st1" d="M38.8,113L38.8,113c-1.7,0-3-1.3-3-2.9V98.5c0-7-2.7-13.5-7.7-18.4c-1.1-1.1-1.1-3,0-4.1c1.1-1.1,3-1.2,4.2,0
			c6,6,9.4,14,9.4,22.6v11.6C41.8,111.7,40.5,113,38.8,113z"/>
		<path class="st1" d="M17,77.7c-0.3,0-0.5,0-0.8-0.1c-1.9-0.3-3.5-1.6-4-3.5l-1.8-5.8l-5.8-1.8c-1.8-0.6-3.2-2.1-3.5-4
			s0.5-3.8,2.1-4.9l5-3.5L8,48c0-1.9,1-3.7,2.8-4.5s3.8-0.7,5.3,0.5l4.9,3.6l5.8-2c1.8-0.6,3.8-0.2,5.2,1.2s1.8,3.3,1.2,5.2l-2,5.8
			l3.7,4.9c1.2,1.5,1.3,3.6,0.5,5.3c-0.9,1.7-2.6,2.8-4.5,2.8c0,0,0,0-0.1,0l-6.1-0.1l-3.5,5C20.2,76.9,18.7,77.7,17,77.7z
			 M17.8,72.4L17.8,72.4L17.8,72.4z M7.8,61.5l4.7,1.5c1.6,0.5,2.8,1.7,3.3,3.3l0,0l1.5,4.7l2.9-4c1-1.3,2.5-2.1,4.2-2.1l5,0.1l-3-4
			c-1-1.3-1.3-3.1-0.7-4.6l1.6-4.7l-4.7,1.6c-1.6,0.5-3.3,0.3-4.6-0.7l-4-3l0.1,4.9c0,1.7-0.8,3.2-2.1,4.2L7.8,61.5z M10.8,68.4
			L10.8,68.4L10.8,68.4z M10.3,68L10.3,68L10.3,68z"/>
	</g>
	<g>
		<g>
			<path class="st2" d="M78.2,51.2c-1,0-2-0.2-2.9-0.7l-9.1-4.8c-0.1-0.1-0.3-0.1-0.4,0l0,0l-9.1,4.8c-2.1,1.1-4.7,0.9-6.6-0.5
				c-2-1.4-2.9-3.8-2.5-6.1l1.7-10.1c0-0.2,0-0.3-0.1-0.4l-7.4-7.2c-1.7-1.7-2.3-4.1-1.6-6.4s2.7-3.9,5.1-4.3L55.4,14
				c0.2,0,0.3-0.1,0.4-0.3l4.6-9.2C61.3,2.3,63.5,1,65.9,1l0,0c2.4,0,4.6,1.3,5.7,3.5l4.6,9.2c0.1,0.1,0.2,0.2,0.4,0.3l10.2,1.5
				c2.4,0.4,4.3,2,5.1,4.3c0.8,2.3,0.1,4.8-1.6,6.4l-7.4,7.2c-0.1,0.1-0.2,0.3-0.1,0.4l1.7,10.1c0.4,2.4-0.6,4.7-2.5,6.1
				C80.8,50.8,79.5,51.2,78.2,51.2z M65.9,39.9c1,0,2,0.2,2.9,0.7l9.1,4.8c0.1,0,0.3,0.1,0.5,0c0.2-0.2,0.2-0.4,0.2-0.5l-1.7-10.1
				c-0.3-2,0.3-4.1,1.8-5.6l7.4-7.2c0.1,0,0.2-0.2,0.1-0.5c-0.1-0.3-0.3-0.3-0.4-0.3l-10.2-1.5c-2.1-0.3-3.8-1.6-4.8-3.4l-4.6-9.2
				c0-0.1-0.1-0.3-0.4-0.3S65.5,7,65.5,7.1l-4.6,9.2c-0.9,1.9-2.7,3.1-4.8,3.4L46,21.2c-0.1,0-0.3,0-0.4,0.3
				c-0.1,0.3,0.1,0.5,0.1,0.5l7.4,7.2c1.5,1.4,2.2,3.5,1.8,5.6l-1.7,10.1c0,0.1,0,0.3,0.2,0.5c0.2,0.2,0.4,0.1,0.5,0l9.1-4.8
				C63.9,40.1,64.9,39.9,65.9,39.9z M64.3,43.2L64.3,43.2L64.3,43.2z"/>
			<path class="st2" d="M65.9,109.2L65.9,109.2c-1.7,0-3-1.3-3-2.9V43.2c0-1.6,1.3-2.9,2.9-2.9s3,1.3,3,2.9v63.1
				C68.9,107.9,67.6,109.2,65.9,109.2z M65.9,106.3L65.9,106.3L65.9,106.3z"/>
		</g>
		<g>
			<path class="st2" d="M89.2,109.2L89.2,109.2c-1.7,0-3-1.3-3-2.9V94.7c0-8.5,3.3-16.5,9.4-22.6c1.1-1.1,3-1.1,4.1,0s1.2,3,0,4.1
				c-4.9,4.9-7.7,11.5-7.7,18.4v11.6C92.1,107.9,90.8,109.2,89.2,109.2z M89.2,106.3L89.2,106.3L89.2,106.3z"/>
			<path class="st2" d="M111,73.9c-1.6,0-3.2-0.8-4.1-2.1l-3.5-5l-6.1,0.1c0,0,0,0-0.1,0c-1.9,0-3.6-1.1-4.5-2.8
				c-0.9-1.7-0.7-3.8,0.4-5.3l3.7-4.9l-2-5.8c-0.6-1.8-0.2-3.8,1.2-5.2c1.4-1.4,3.4-1.8,5.2-1.2l5.8,2l4.9-3.6
				c1.6-1.2,3.6-1.3,5.3-0.5c1.7,0.9,2.8,2.6,2.8,4.5l-0.1,6.1l5,3.5c1.6,1.1,2.4,3,2.1,4.9c-0.3,1.9-1.6,3.5-3.5,4l-5.8,1.8
				l-1.8,5.8c-0.6,1.8-2.1,3.2-4,3.5C111.5,73.8,111.2,73.9,111,73.9z M103.7,61c1.6,0,3.2,0.8,4.1,2.1l2.9,4l1.5-4.7l0,0
				c0.5-1.6,1.7-2.8,3.3-3.3l4.7-1.5l-4.1-2.8c-1.4-1-2.2-2.5-2.1-4.2l0.1-5l-4,3c-1.3,1-3.1,1.3-4.7,0.7l-4.7-1.6l1.6,4.7
				c0.5,1.6,0.3,3.3-0.7,4.6l-3,4L103.7,61C103.7,61,103.7,61,103.7,61z M117.7,64.1L117.7,64.1L117.7,64.1L117.7,64.1z"/>
		</g>
		<g>
			<path class="st2" d="M42.7,109.2L42.7,109.2c-1.7,0-3-1.3-3-2.9V94.7c0-7-2.7-13.5-7.7-18.4c-1.1-1.1-1.1-3,0-4.1
				c1.1-1.1,3-1.2,4.2,0c6,6,9.4,14,9.4,22.6v11.6C45.6,107.9,44.3,109.2,42.7,109.2z"/>
			<path class="st2" d="M20.9,73.9c-0.3,0-0.5,0-0.8-0.1c-1.9-0.3-3.5-1.6-4-3.5l-1.8-5.8l-5.8-1.8c-1.8-0.6-3.2-2.1-3.5-4
				c-0.3-1.9,0.5-3.8,2.1-4.9l5-3.5l-0.1-6.1c0-1.9,1-3.7,2.8-4.5s3.8-0.7,5.3,0.5l4.9,3.6l5.8-2c1.8-0.6,3.8-0.2,5.2,1.2
				c1.4,1.4,1.8,3.3,1.2,5.2l-2,5.8l3.7,4.9c1.2,1.5,1.3,3.6,0.5,5.3c-0.9,1.7-2.6,2.8-4.5,2.8c0,0,0,0-0.1,0l-6.1-0.1l-3.5,5
				C24,73.1,22.5,73.9,20.9,73.9z M21.6,68.6L21.6,68.6L21.6,68.6z M11.6,57.6l4.7,1.5c1.6,0.5,2.8,1.7,3.3,3.3l0,0l1.5,4.7l2.9-4
				c1-1.3,2.5-2.1,4.2-2.1l5,0.1l-3-4c-1-1.3-1.3-3.1-0.7-4.6l1.6-4.7l-4.7,1.6c-1.6,0.5-3.3,0.3-4.6-0.7l-4-3l0.1,4.9
				c0,1.7-0.8,3.2-2.1,4.2L11.6,57.6z M14.6,64.6L14.6,64.6L14.6,64.6z M14.1,64.1L14.1,64.1L14.1,64.1z"/>
		</g>
	</g>
</g>
</svg>
