<?xml version="1.0" encoding="utf-8"?>
<!-- Generator: Adobe Illustrator 24.2.1, SVG Export Plug-In . SVG Version: 6.00 Build 0)  -->
<svg version="1.1" id="Layer_1" xmlns="http://www.w3.org/2000/svg" xmlns:xlink="http://www.w3.org/1999/xlink" x="0px" y="0px"
	 viewBox="0 0 121 91" style="enable-background:new 0 0 121 91;" xml:space="preserve">
<style type="text/css">
	.st0{opacity:0.1;}
	.st1{fill:#FFFFFF;}
</style>
<g>
	<g>
		<g class="st0">
			<path d="M114.4,45.6l-5.6,3.5c-3.8,2.4-7.1,5.1-9.8,8.1c-0.3-0.2-0.5-0.5-0.8-0.7l-15-10.3c2.7-0.3,5.4-1.2,7.8-3.3l-2.8-3.3
				c-5.6,4.7-12.4,1.3-14.3,0.2L72.8,39L61,30.3c-1.3-1-3-1.4-4.6-1c-1.6,0.3-3,1.3-3.9,2.6l-2.8,4.4c-2.5,3.8-6.8,7.2-11.8,5
				c-0.3-0.1-1.1-0.5-1.2-0.9c-0.1-0.6,0.5-1.6,1.1-2.3l9.4-12.6c1.7-2.1,4.2-3.4,7-3.5c0.1,0,14.3-1.4,32.1,4.2l0.9,0.3l0.8-0.5
				c0.6-0.3,14.9-8.6,25.2-18.7l-3-3.1c-8.6,8.4-20.4,15.7-23.5,17.6c-18.3-5.6-32.3-4.2-32.7-4.2c-3.6,0.1-6.9,1.7-9.4,4.3l-5,0.3
				c-1.7,0.1-3.2-0.2-4.7-1c-0.1-0.1-11.7-8.2-20.4-15.6L11.8,9c8.8,7.6,20.6,15.8,20.7,15.9l0.4,0.2c1.9,1,4,1.5,6.2,1.5
				c0.3,0,0.5,0,0.8,0l1.2-0.1l-6.6,8.8c-0.3,0.3-2.6,3-2,5.9c0.3,1.2,1.1,2.9,3.7,4c6.1,2.6,12.9,0,17.1-6.7l2.8-4.4
				c0.2-0.4,0.6-0.6,1.1-0.7s0.9,0,1.3,0.3l11.4,8.4l0,0l0.4,0.3L71,43c0.1,0.1,0.2,0.1,0.3,0.2L95.8,60c0.9,0.7,1.5,1.7,1.5,2.7
				c0,0.9-0.3,1.7-1,2.4c-1.1,1.1-2.9,1.3-4.2,0.4c-1.1-0.7-20.2-14-20.2-14l-2.4,3.5c0,0,1.7,1.1,4,2.8l0,0l18.4,12.7
				c0.6,0.6,0.9,1.5,0.9,2.6c0,1-0.4,2.1-1.1,2.7c-1.1,1.1-2.9,1.3-4.2,0.4c-0.2-0.1-1-0.7-2.1-1.4c-0.1-0.1-0.1-0.2-0.2-0.2
				l-19-13.2l-2.4,3.5l0.1,0.1l0,0.1c0,0,13.2,9.1,18.8,13c1.1,1.3,1.1,3.2-0.2,4.4c-1.1,1.1-2.9,1.3-4.2,0.4c-0.4-0.3-4.3-3-8.7-6
				c-0.1-0.1-0.1-0.1-0.2-0.2l-11.8-8c-0.8-0.6-1.4-1-1.4-1v0l-0.6-0.4l-2.4,3.5l1,0.7c1.5,1,7.3,5.1,12.7,8.7
				c1.1,1.3,1.1,3.2-0.2,4.5c-1.1,1.1-2.9,1.3-4.2,0.4c-0.7-0.5-5.1-3.5-7.3-5c-0.1-1.9-0.8-3.8-2.2-5.4c-1-1.1-2.5-1.7-4.1-2
				c0.6-2.8-0.5-5.9-2.9-7.7c-1-0.8-2.2-1.2-3.5-1.4c1.7-3.3,0.8-7.4-2.2-9.6c-1.6-1.2-3.7-1.7-5.7-1.4c-1.2,0.2-2.3,0.7-3.3,1.3
				c-0.5-1.2-1.3-2.2-2.4-3.1c-1.6-1.2-3.6-1.7-5.7-1.4c-1.5,0.2-2.9,0.9-4,1.9c-1.8-2-6.1-6-15.7-12.9L1,42.1
				C12.4,50.2,15.7,54,16.5,55l-3.1,4.2c-2.5,3.4-1.8,8.2,1.6,10.7c1.2,0.9,2.5,1.3,4,1.4c-0.9,3,0.1,6.4,2.8,8.3
				c1.3,1,2.9,1.5,4.5,1.5c0.4,0,0.8,0,1.2-0.1c0.7-0.1,1.4-0.3,2.1-0.6c0.5,1.4,1.4,2.7,2.6,3.6c1.3,1,2.9,1.5,4.5,1.5
				c0.4,0,0.8,0,1.2-0.1c0.8-0.1,1.4-0.4,2.1-0.7c0.5,1.4,1.4,2.8,2.7,3.7c1.3,1,2.9,1.5,4.5,1.5c0.4,0,0.8,0,1.2-0.1
				c2-0.3,3.8-1.4,5-3c0.4-0.6,0.8-1.2,1-1.9c2.3,1.6,5.2,3.5,5.7,3.9c1.3,0.8,2.7,1.2,4.2,1.2c2,0,3.9-0.8,5.4-2.2
				c1.1-1.1,1.8-2.5,2.1-4.1c2.2,1.6,3.9,2.7,4.1,2.8c1.3,0.8,2.7,1.2,4.2,1.2c2,0,3.9-0.8,5.4-2.2c1.3-1.3,2-3,2.1-4.8
				c0.6,0.1,1.1,0.2,1.7,0.2c2,0,3.9-0.8,5.4-2.2c2.3-2.3,2.9-5.9,1.6-8.9c1.1-0.4,2.1-0.9,3-1.8c1.4-1.4,2.2-3.3,2.2-5.4
				c0-0.6-0.1-1.2-0.2-1.8c2.6-3,5.8-5.8,9.7-8.2l5.6-3.5L114.4,45.6z M16.9,61.6l4.8-6.4c0.5-0.7,1.3-1.2,2.2-1.3
				c0.2,0,0.4,0,0.5,0c0.7,0,1.4,0.2,2,0.6c1.5,1.1,1.8,3.2,0.7,4.7l-4.7,6.4c-0.5,0.7-1.3,1.2-2.2,1.3c-0.9,0.1-1.8-0.1-2.5-0.6
				C16.1,65.3,15.8,63.1,16.9,61.6z M26.8,76.7c-0.9,0.1-1.8-0.1-2.5-0.6c-1.5-1.1-1.8-3.2-0.7-4.8l9.4-13c0.5-0.7,1.3-1.2,2.2-1.3
				c0.2,0,0.4,0,0.5,0c0.7,0,1.4,0.2,2,0.6c1.5,1.1,1.8,3.2,0.7,4.8l-4.9,6.7l-3,4.1c-0.1,0.2-0.2,0.3-0.3,0.5L29,75.4
				C28.5,76.1,27.7,76.6,26.8,76.7z M37.2,81.1c-0.9,0.1-1.8-0.1-2.5-0.6c-1.4-1.1-1.7-3-0.8-4.5l3.3-4.5l1.6-2.2
				c0.5-0.7,1.3-1.2,2.2-1.3c0.9-0.1,1.8,0.1,2.5,0.6c1.5,1.1,1.8,3.2,0.7,4.7l-1.6,2.2c0,0.1-0.1,0.1-0.1,0.2l-3,4
				C38.9,80.5,38.1,80.9,37.2,81.1z M49.9,84.2c-0.5,0.7-1.3,1.2-2.2,1.3s-1.8-0.1-2.5-0.6c-1.5-1.1-1.8-3.2-0.7-4.7
				c0.2-0.2,0.4-0.5,0.6-0.9c0.4-0.6,1.4-2.1,1.9-2.4c0.9-0.1,2.4,0.3,2.8,0.8C51.5,79.5,51.2,82.5,49.9,84.2z"/>
		</g>
		<g>
			<path class="st1" d="M117.7,42.2l-5.6,3.5c-3.8,2.4-7.1,5.1-9.8,8.1c-0.3-0.2-0.5-0.5-0.8-0.7l-15-10.3c2.7-0.3,5.4-1.2,7.8-3.3
				l-2.8-3.3C86,41,79.2,37.6,77.3,36.5l-1.2-0.8L64.3,27c-1.3-1-3-1.4-4.6-1c-1.6,0.3-3,1.3-3.9,2.6L53,32.9
				c-2.5,3.8-6.8,7.2-11.9,5c-0.3-0.1-1.1-0.5-1.2-0.9c-0.1-0.6,0.5-1.6,1.1-2.3l9.4-12.6c1.7-2.1,4.2-3.4,7-3.5
				c0.1,0,14.3-1.4,32.1,4.2l0.9,0.3l0.8-0.5c0.6-0.3,14.9-8.6,25.2-18.7l-3-3.1C105,9.4,93.2,16.7,90,18.6
				c-18.3-5.6-32.3-4.2-32.7-4.2c-3.6,0.1-6.9,1.7-9.4,4.3l-5,0.3c-1.7,0.1-3.2-0.2-4.7-1c-0.1-0.1-11.7-8.2-20.4-15.6l-2.8,3.2
				c8.8,7.6,20.6,15.8,20.7,15.9l0.4,0.2c1.9,1,4,1.5,6.2,1.5c0.3,0,0.5,0,0.8,0l1.2-0.1L37.8,32c-0.3,0.3-2.6,3-2,5.9
				c0.3,1.2,1.1,2.9,3.7,4c6.1,2.6,12.9,0,17.1-6.7l2.8-4.4c0.2-0.4,0.6-0.6,1.1-0.7s0.9,0,1.3,0.3l11.4,8.4l0,0l0.4,0.3l0.8,0.6
				c0.1,0.1,0.2,0.1,0.3,0.2l24.4,16.8c0.9,0.7,1.5,1.7,1.5,2.7c0,0.9-0.3,1.7-1,2.4c-1.1,1.1-2.9,1.3-4.2,0.4
				c-1.1-0.7-20.2-14-20.2-14l-2.4,3.5c0,0,1.7,1.1,4,2.8l0,0l18.4,12.7c0.6,0.6,0.9,1.5,0.9,2.6c0,1-0.4,2.1-1.1,2.7
				c-1.1,1.1-2.9,1.3-4.2,0.4c-0.2-0.1-1-0.7-2.1-1.4c-0.1-0.1-0.1-0.2-0.2-0.2L69.5,58l-2.4,3.5l0.1,0.1l-0.1,0.1
				c0,0,13.2,9.1,18.8,13c1.1,1.3,1.1,3.2-0.2,4.4c-1.1,1.1-2.9,1.3-4.2,0.4c-0.4-0.3-4.3-3-8.7-6c-0.1-0.1-0.1-0.1-0.2-0.2l-11.8-8
				c-0.8-0.6-1.4-1-1.4-1v0L59,64l-2.4,3.5l1,0.7c1.5,1,7.3,5.1,12.7,8.7c1.1,1.3,1.1,3.2-0.2,4.5c-1.1,1.1-2.9,1.3-4.2,0.4
				c-0.7-0.5-5.1-3.5-7.3-5c-0.1-1.9-0.8-3.8-2.2-5.4c-1-1.1-2.5-1.7-4.1-2c0.6-2.8-0.5-5.9-2.9-7.7c-1-0.8-2.2-1.2-3.5-1.4
				c1.7-3.3,0.8-7.4-2.2-9.6C42,49.6,40,49.1,38,49.4c-1.2,0.2-2.3,0.7-3.3,1.3c-0.5-1.2-1.3-2.2-2.4-3.1c-1.6-1.2-3.6-1.7-5.7-1.4
				c-1.5,0.2-2.9,0.9-4,1.9c-1.8-2-6.1-6-15.7-12.9l-2.5,3.5c11.4,8.1,14.7,11.8,15.5,12.8l-3.1,4.2c-2.5,3.4-1.8,8.2,1.6,10.7
				c1.2,0.9,2.5,1.3,4,1.4c-0.9,3,0.1,6.4,2.8,8.3c1.3,1,2.9,1.5,4.5,1.5c0.4,0,0.8,0,1.2-0.1c0.7-0.1,1.4-0.3,2.1-0.6
				c0.5,1.4,1.4,2.7,2.7,3.6c1.3,1,2.9,1.5,4.5,1.5c0.4,0,0.8,0,1.2-0.1c0.8-0.1,1.4-0.4,2.1-0.7c0.5,1.4,1.4,2.8,2.7,3.7
				c1.3,1,2.9,1.5,4.5,1.5c0.4,0,0.8,0,1.2-0.1c2-0.3,3.8-1.4,5-3c0.4-0.6,0.8-1.2,1-1.9c2.3,1.6,5.2,3.5,5.7,3.9
				c1.3,0.8,2.7,1.2,4.2,1.2c2,0,3.9-0.8,5.4-2.2c1.1-1.1,1.8-2.5,2.1-4.1c2.2,1.6,3.9,2.7,4.1,2.8c1.3,0.8,2.7,1.2,4.2,1.2
				c2,0,3.9-0.8,5.4-2.2c1.3-1.3,2-3,2.1-4.8c0.6,0.1,1.1,0.2,1.7,0.2c2,0,3.9-0.8,5.4-2.2c2.3-2.3,2.9-5.9,1.6-8.9
				c1.1-0.4,2.1-0.9,3-1.8c1.4-1.4,2.2-3.3,2.2-5.4c0-0.6-0.1-1.2-0.2-1.8c2.6-3,5.8-5.8,9.7-8.2l5.6-3.5L117.7,42.2z M20.3,58.3
				l4.8-6.4c0.5-0.7,1.3-1.2,2.2-1.3c0.2,0,0.4,0,0.5,0c0.7,0,1.4,0.2,2,0.6c1.5,1.1,1.8,3.2,0.7,4.7l-4.7,6.4
				c-0.5,0.7-1.3,1.2-2.2,1.3c-0.9,0.1-1.8-0.1-2.5-0.6C19.5,61.9,19.1,59.8,20.3,58.3z M30.2,73.4c-0.9,0.1-1.8-0.1-2.5-0.6
				c-1.5-1.1-1.8-3.2-0.7-4.8l9.4-13c0.5-0.7,1.3-1.2,2.2-1.3c0.2,0,0.4,0,0.5,0c0.7,0,1.4,0.2,2,0.6c1.5,1.1,1.8,3.2,0.7,4.8
				l-4.9,6.7l-3,4.1c-0.1,0.2-0.2,0.3-0.3,0.5l-1.2,1.7C31.9,72.8,31.1,73.2,30.2,73.4z M40.6,77.7c-0.9,0.1-1.8-0.1-2.5-0.6
				c-1.4-1.1-1.7-3-0.8-4.5l3.3-4.5l1.6-2.2c0.5-0.7,1.3-1.2,2.2-1.3c0.9-0.1,1.8,0.1,2.5,0.6c1.5,1.1,1.8,3.2,0.7,4.7l-1.6,2.2
				c0,0.1-0.1,0.1-0.1,0.2l-3,4C42.2,77.1,41.5,77.6,40.6,77.7z M53.3,80.9c-0.5,0.7-1.3,1.2-2.2,1.3s-1.8-0.1-2.5-0.6
				c-1.5-1.1-1.8-3.2-0.7-4.7c0.2-0.2,0.4-0.5,0.6-0.9c0.4-0.6,1.4-2.1,1.9-2.4c0.9-0.1,2.4,0.3,2.8,0.8
				C54.8,76.1,54.5,79.2,53.3,80.9z"/>
		</g>
	</g>
</g>
</svg>
