<?xml version="1.0" encoding="utf-8"?>
<!-- Generator: Adobe Illustrator 24.1.2, SVG Export Plug-In . SVG Version: 6.00 Build 0)  -->
<svg version="1.1" id="Layer_1" xmlns="http://www.w3.org/2000/svg" xmlns:xlink="http://www.w3.org/1999/xlink" x="0px" y="0px"
	 viewBox="0 0 128 114" style="enable-background:new 0 0 128 114;" xml:space="preserve">
<style type="text/css">
	.st0{opacity:0.75;}
	.st1{fill:#CCCCCC;}
	.st2{fill:#FFFFFF;}
	.st3{fill:#CCCCCC;stroke:#041319;stroke-width:3.9722;stroke-linejoin:round;}
	.st4{fill:#FFFFFF;stroke:#37464C;stroke-width:3.9722;stroke-linejoin:round;}
	.st5{opacity:0.7;}
</style>
<g>
	<g class="st5">
		<path class="st1" d="M74.36,55.05c-1,0-2.01-0.24-2.94-0.73l-9.12-4.78c-0.14-0.07-0.32-0.07-0.45,0c0,0,0,0,0,0l-9.12,4.78
			c-2.14,1.12-4.68,0.94-6.64-0.48c-1.95-1.41-2.92-3.77-2.51-6.14l1.74-10.12c0.03-0.16-0.03-0.32-0.14-0.43l-7.38-7.16
			c-1.73-1.68-2.34-4.15-1.59-6.44c0.75-2.29,2.7-3.93,5.09-4.27l10.2-1.47c0.16-0.03,0.3-0.12,0.37-0.27l4.56-9.2
			c1.07-2.16,3.23-3.5,5.65-3.5c0,0,0,0,0,0c2.41,0,4.58,1.34,5.65,3.5l4.56,9.21c0.07,0.14,0.21,0.24,0.37,0.27l10.19,1.47
			c2.39,0.35,4.34,1.98,5.09,4.28c0.75,2.29,0.13,4.76-1.6,6.44l-7.38,7.16c-0.12,0.11-0.17,0.27-0.14,0.43l1.74,10.11
			c0.41,2.37-0.55,4.73-2.51,6.14C76.96,54.64,75.66,55.05,74.36,55.05z M62.08,43.69c1.01,0,2.01,0.24,2.93,0.72l9.12,4.78
			c0.07,0.04,0.27,0.14,0.51-0.04c0.24-0.18,0.2-0.4,0.19-0.47l-1.74-10.12c-0.35-2.05,0.33-4.12,1.81-5.56l7.37-7.16
			c0.05-0.05,0.22-0.21,0.12-0.5c-0.09-0.29-0.32-0.32-0.39-0.33l-10.19-1.47c-2.06-0.3-3.83-1.58-4.75-3.44l-4.56-9.2
			c-0.03-0.07-0.13-0.27-0.44-0.27s-0.4,0.2-0.44,0.27l-4.56,9.2c-0.92,1.85-2.7,3.14-4.75,3.44l-10.2,1.47
			c-0.07,0.01-0.3,0.05-0.39,0.33c-0.09,0.29,0.07,0.45,0.12,0.5l7.38,7.16c1.49,1.44,2.16,3.52,1.81,5.56l-1.74,10.11
			c-0.01,0.07-0.05,0.3,0.2,0.47c0.24,0.18,0.44,0.08,0.51,0.04l9.12-4.78C60.06,43.93,61.07,43.69,62.08,43.69z M60.5,46.98h0.03
			H60.5z"/>
		<path class="st1" d="M62.11,113h-0.06c-1.61,0-2.91-1.3-2.91-2.9V46.98c0-1.6,1.3-2.9,2.91-2.9c1.61,0,2.97,1.3,2.97,2.9v63.12
			C65.01,111.7,63.71,113,62.11,113z M62.11,110.1h0.03H62.11z"/>
		<path class="st1" d="M85.37,113h-0.06c-1.61,0-2.91-1.3-2.91-2.9V98.51c0-8.52,3.33-16.53,9.38-22.56c1.14-1.13,2.98-1.13,4.11,0
			c1.14,1.13,1.18,3.01,0.04,4.14c-4.94,4.92-7.66,11.46-7.66,18.42v11.59C88.28,111.7,86.98,113,85.37,113z M85.37,110.1h0.03
			H85.37z"/>
		<path class="st1" d="M107.11,77.69c-1.62,0-3.15-0.78-4.11-2.13l-3.52-4.97l-6.11,0.08c-0.02,0-0.04,0-0.07,0
			c-1.91,0-3.63-1.05-4.5-2.75c-0.88-1.72-0.71-3.75,0.45-5.3l3.65-4.87l-1.96-5.76c-0.62-1.83-0.16-3.81,1.22-5.18
			c1.37-1.37,3.36-1.83,5.19-1.21l5.78,1.96l4.89-3.64c1.55-1.15,3.59-1.33,5.31-0.45c1.73,0.88,2.79,2.62,2.76,4.55l-0.08,6.08
			l4.98,3.51c1.58,1.11,2.38,2.99,2.08,4.9c-0.3,1.91-1.64,3.45-3.49,4.02l-5.83,1.81l-1.81,5.81c-0.58,1.84-2.12,3.18-4.04,3.48
			C107.65,77.67,107.38,77.69,107.11,77.69z M99.87,64.79c1.64,0,3.18,0.79,4.13,2.13l2.87,4.04l1.47-4.72c0,0,0,0,0,0
			c0.49-1.58,1.74-2.82,3.32-3.31l4.73-1.47l-4.05-2.85c-1.36-0.96-2.16-2.52-2.14-4.17l0.06-4.95l-3.98,2.96
			c-1.33,0.99-3.06,1.27-4.65,0.73l-4.69-1.58l1.59,4.68c0.53,1.56,0.26,3.29-0.73,4.62l-2.97,3.96l4.96-0.07
			C99.83,64.79,99.85,64.79,99.87,64.79z M113.89,67.96L113.89,67.96C113.89,67.96,113.89,67.96,113.89,67.96L113.89,67.96z"/>
		<path class="st1" d="M38.84,113h-0.06c-1.61,0-2.91-1.3-2.91-2.9V98.51c0-6.96-2.72-13.5-7.66-18.42c-1.14-1.13-1.14-2.97,0-4.1
			c1.13-1.14,3.02-1.18,4.15-0.04c6.05,6.02,9.38,14.03,9.38,22.56v11.59C41.75,111.7,40.45,113,38.84,113z"/>
		<path class="st1" d="M17.04,77.69c-0.27,0-0.54-0.02-0.81-0.07c-1.91-0.3-3.46-1.64-4.03-3.48l-1.81-5.81l-5.83-1.81
			c-1.85-0.57-3.19-2.11-3.49-4.02c-0.3-1.91,0.49-3.78,2.07-4.9l4.98-3.51l-0.08-6.08c-0.03-1.93,1.03-3.68,2.76-4.55
			c1.73-0.87,3.76-0.7,5.31,0.46l4.89,3.64l5.78-1.96c1.84-0.62,3.83-0.16,5.2,1.21c1.37,1.37,1.83,3.35,1.21,5.18l-1.96,5.76
			l3.65,4.87c1.16,1.55,1.33,3.58,0.45,5.3c-0.87,1.7-2.59,2.75-4.5,2.75c-0.02,0-0.04,0-0.07,0l-6.11-0.08l-3.52,4.97
			C20.19,76.91,18.66,77.69,17.04,77.69z M17.75,72.43h0.03H17.75z M7.76,61.46l4.73,1.47c1.59,0.5,2.83,1.73,3.32,3.31c0,0,0,0,0,0
			l1.47,4.72l2.87-4.04c0.96-1.35,2.45-2.1,4.19-2.13l4.96,0.07l-2.97-3.96c-1-1.34-1.27-3.06-0.74-4.63l1.59-4.68l-4.69,1.59
			c-1.58,0.53-3.31,0.26-4.65-0.74l-3.97-2.95l0.06,4.94c0.02,1.66-0.78,3.21-2.13,4.17L7.76,61.46z M10.77,68.45h0.03H10.77z
			 M10.27,67.96C10.27,67.96,10.27,67.96,10.27,67.96L10.27,67.96z"/>
	</g>
	<g>
		<g>
			<path class="st2" d="M78.21,51.22c-1,0-2.01-0.24-2.94-0.73l-9.12-4.78c-0.14-0.07-0.32-0.07-0.45,0c0,0,0,0,0,0l-9.12,4.78
				c-2.14,1.12-4.68,0.94-6.64-0.48c-1.95-1.41-2.92-3.77-2.51-6.14l1.74-10.12c0.03-0.16-0.03-0.32-0.14-0.43l-7.38-7.16
				c-1.73-1.68-2.34-4.15-1.59-6.44c0.75-2.29,2.7-3.93,5.09-4.27l10.2-1.47c0.16-0.03,0.3-0.12,0.37-0.27l4.56-9.2
				C61.34,2.34,63.5,1,65.92,1c0,0,0,0,0,0c2.41,0,4.58,1.34,5.65,3.5l4.56,9.21c0.07,0.14,0.21,0.24,0.37,0.27l10.19,1.47
				c2.39,0.35,4.34,1.98,5.09,4.28c0.75,2.29,0.13,4.76-1.6,6.44l-7.38,7.16c-0.12,0.11-0.17,0.27-0.14,0.43l1.74,10.11
				c0.41,2.37-0.55,4.73-2.51,6.14C80.8,50.81,79.51,51.22,78.21,51.22z M65.92,39.86c1.01,0,2.01,0.24,2.93,0.72l9.12,4.78
				c0.07,0.04,0.27,0.14,0.51-0.04c0.24-0.18,0.2-0.4,0.19-0.47l-1.74-10.12c-0.35-2.05,0.33-4.12,1.81-5.56l7.37-7.16
				c0.05-0.05,0.22-0.21,0.12-0.5c-0.09-0.29-0.32-0.32-0.39-0.33L75.67,19.7c-2.06-0.3-3.83-1.58-4.75-3.44l-4.56-9.2
				C66.33,7,66.23,6.8,65.92,6.8s-0.4,0.2-0.44,0.27l-4.56,9.2c-0.92,1.85-2.7,3.14-4.75,3.44l-10.2,1.47
				c-0.07,0.01-0.3,0.05-0.39,0.33c-0.09,0.29,0.07,0.45,0.12,0.5l7.38,7.16c1.49,1.44,2.16,3.52,1.81,5.56l-1.74,10.11
				c-0.01,0.07-0.05,0.3,0.2,0.47c0.24,0.18,0.44,0.08,0.51,0.04l9.12-4.78C63.91,40.1,64.92,39.86,65.92,39.86z M64.34,43.15h0.03
				H64.34z"/>
			<path class="st2" d="M65.95,109.17H65.9c-1.61,0-2.91-1.3-2.91-2.9V43.15c0-1.6,1.3-2.9,2.91-2.9s2.97,1.3,2.97,2.9v63.12
				C68.86,107.87,67.56,109.17,65.95,109.17z M65.95,106.27h0.03H65.95z"/>
		</g>
		<g>
			<path class="st2" d="M89.22,109.17h-0.06c-1.61,0-2.91-1.3-2.91-2.9V94.68c0-8.52,3.33-16.53,9.38-22.56
				c1.14-1.13,2.98-1.13,4.11,0s1.18,3.01,0.04,4.14c-4.94,4.92-7.66,11.46-7.66,18.42v11.59
				C92.13,107.87,90.83,109.17,89.22,109.17z M89.22,106.27h0.03H89.22z"/>
			<path class="st2" d="M110.96,73.86c-1.62,0-3.15-0.78-4.11-2.13l-3.52-4.97l-6.11,0.08c-0.02,0-0.04,0-0.07,0
				c-1.91,0-3.63-1.05-4.5-2.75c-0.88-1.72-0.71-3.75,0.45-5.3l3.65-4.87l-1.96-5.76c-0.62-1.83-0.16-3.81,1.22-5.18
				c1.37-1.37,3.36-1.83,5.19-1.21l5.78,1.96l4.89-3.64c1.55-1.15,3.59-1.33,5.31-0.45c1.73,0.88,2.79,2.62,2.76,4.55l-0.08,6.08
				l4.98,3.51c1.58,1.11,2.38,2.99,2.08,4.9c-0.3,1.91-1.64,3.45-3.49,4.02l-5.83,1.81l-1.81,5.81c-0.58,1.84-2.12,3.18-4.04,3.48
				C111.5,73.83,111.23,73.86,110.96,73.86z M103.71,60.96c1.64,0,3.18,0.79,4.13,2.13l2.87,4.04l1.47-4.72c0,0,0,0,0,0
				c0.49-1.58,1.74-2.82,3.32-3.31l4.73-1.47l-4.05-2.85c-1.36-0.96-2.16-2.52-2.14-4.17l0.06-4.95l-3.98,2.96
				c-1.33,0.99-3.06,1.27-4.65,0.73l-4.69-1.58l1.59,4.68c0.53,1.56,0.26,3.29-0.73,4.62l-2.97,3.96l4.96-0.07
				C103.67,60.96,103.69,60.96,103.71,60.96z M117.73,64.13L117.73,64.13C117.73,64.13,117.73,64.13,117.73,64.13L117.73,64.13z"/>
		</g>
		<g>
			<path class="st2" d="M42.69,109.17h-0.06c-1.61,0-2.91-1.3-2.91-2.9V94.68c0-6.96-2.72-13.5-7.66-18.42
				c-1.14-1.13-1.14-2.97,0-4.1c1.13-1.14,3.02-1.18,4.15-0.04c6.05,6.02,9.38,14.03,9.38,22.56v11.59
				C45.59,107.87,44.29,109.17,42.69,109.17z"/>
			<path class="st2" d="M20.88,73.86c-0.27,0-0.54-0.02-0.81-0.07c-1.91-0.3-3.46-1.64-4.03-3.48l-1.81-5.81L8.4,62.7
				c-1.85-0.57-3.19-2.11-3.49-4.02c-0.3-1.91,0.49-3.78,2.07-4.9l4.98-3.51l-0.08-6.08c-0.03-1.93,1.03-3.68,2.76-4.55
				c1.73-0.87,3.76-0.7,5.31,0.46l4.89,3.64l5.78-1.96c1.84-0.62,3.83-0.16,5.2,1.21c1.37,1.37,1.83,3.35,1.21,5.18l-1.96,5.76
				l3.65,4.87c1.16,1.55,1.33,3.58,0.45,5.3c-0.87,1.7-2.59,2.75-4.5,2.75c-0.02,0-0.04,0-0.07,0l-6.11-0.08L25,71.73
				C24.03,73.08,22.51,73.86,20.88,73.86z M21.6,68.59h0.03H21.6z M11.61,57.62l4.73,1.47c1.59,0.5,2.83,1.73,3.32,3.31c0,0,0,0,0,0
				l1.47,4.72l2.87-4.04c0.96-1.35,2.45-2.1,4.19-2.13l4.96,0.07l-2.97-3.96c-1-1.34-1.27-3.06-0.74-4.63l1.59-4.68l-4.69,1.59
				c-1.58,0.53-3.31,0.26-4.65-0.74l-3.97-2.95l0.06,4.94c0.02,1.66-0.78,3.21-2.13,4.17L11.61,57.62z M14.61,64.62h0.03H14.61z
				 M14.12,64.13C14.12,64.13,14.12,64.13,14.12,64.13L14.12,64.13z"/>
		</g>
	</g>
</g>
</svg>
