<?xml version="1.0" encoding="utf-8"?>
<!-- Generator: Adobe Illustrator 24.2.1, SVG Export Plug-In . SVG Version: 6.00 Build 0)  -->
<svg version="1.1" id="Layer_1" xmlns="http://www.w3.org/2000/svg" xmlns:xlink="http://www.w3.org/1999/xlink" x="0px" y="0px"
	 viewBox="0 0 132 112" style="enable-background:new 0 0 132 112;" xml:space="preserve">
<style type="text/css">
	.st0{opacity:0.75;}
	.st1{opacity:0.1;}
	.st2{fill:#FFFFFF;}
</style>
<g>
	<g class="st0">
		<path class="st1" d="M41.8,71.2c-1.5-0.3-3-0.5-4.5-0.7c-1.6-0.2-3.1-0.8-4.2-1.9l-9.8-9.8c-1.6-1.6-3.7-2.4-5.8-2.4L15.1,38
			c-0.5-3.5-3.5-6.1-7-6.1C4.2,31.9,1,35,1,38.9v34.7c0,2.8,1,5.4,2.8,7.5l15.8,17.8l3.4-3L7.2,78.2c-1.1-1.2-1.7-2.8-1.7-4.5V38.9
			c0-1.4,1.2-2.5,2.5-2.5c1.3,0,2.4,1,2.5,2.2l2.5,19c-0.2,0.1-0.4,0.3-0.7,0.4c-1.7,1.4-2.8,3.5-2.9,5.7c-0.1,2.2,0.7,4.4,2.3,6
			l15.7,15.7l3.2-3.2L15,66.5c-0.7-0.7-1-1.6-1-2.6c0.1-1,0.5-1.8,1.2-2.5c1.3-1.1,3.4-0.9,4.8,0.5l9.8,9.8c1.9,1.8,4.3,3,7,3.2
			c1.4,0.1,2.8,0.3,4.1,0.6c8.2,1.7,14.2,9.1,14.2,17.7V111h4.5V93.3C59.6,82.6,52.1,73.3,41.8,71.2z M120.2,31.9
			c-3.5,0-6.5,2.6-7,6.1l-2.4,18.3c-2.1,0-4.2,0.8-5.7,2.4l-9.8,9.8c-1.1,1.1-2.6,1.8-4.2,1.9s-3.2,0.4-4.7,0.7
			c-10.3,2.1-17.7,11.4-17.7,22.1V111h4.5V93.3c0-8.6,5.9-16,14.1-17.7c1.3-0.3,2.7-0.5,4.2-0.6c2.7-0.2,5.1-1.4,7-3.2l9.8-9.8
			c1.3-1.3,3.4-1.5,4.7-0.5c0.8,0.6,1.2,1.5,1.2,2.5c0.1,1-0.3,1.9-1,2.6L97.6,82.3l3.2,3.2l15.7-15.7c1.6-1.6,2.4-3.8,2.3-6
			c-0.1-2.2-1.2-4.3-2.9-5.7c-0.2-0.2-0.4-0.3-0.7-0.4l2.5-19c0.2-1.3,1.3-2.2,2.5-2.2c1.4,0,2.6,1.2,2.6,2.5v34.7
			c0,1.7-0.6,3.3-1.7,4.5l-15.8,17.8l3.4,3l15.8-17.8c1.8-2.1,2.8-4.7,2.8-7.5V39C127.3,35,124.1,31.9,120.2,31.9z M98,46.2
			c9-9.5,9-24.9,0-34.3c-4.4-4.6-10.2-7.2-16.4-7.2s-12,2.5-16.4,7.2c-0.3,0.4-0.7,0.7-1,1.1c-0.3-0.4-0.7-0.8-1-1.1
			c-4.4-4.6-10.2-7.2-16.4-7.2l0,0c-6.2,0-12,2.6-16.4,7.2c-9,9.5-9,24.9,0.1,34.4l32.2,30.2c0.4,0.4,1,0.6,1.5,0.6
			c0.6,0,1.1-0.2,1.5-0.6l32.2-30.2C97.9,46.3,97.9,46.3,98,46.2z M64.1,71.7L33.6,43.1c-7.3-7.8-7.3-20.4,0-28.1
			c3.5-3.7,8.2-5.8,13.1-5.8s9.6,2.1,13.2,5.8c0.9,0.9,1.7,1.9,2.4,3.1c0.4,0.7,1.1,1.1,1.9,1.1l0,0c0.8,0,1.5-0.4,1.9-1
			c0.7-1.1,1.5-2.1,2.4-3.1c3.5-3.7,8.2-5.8,13.2-5.8s9.6,2.1,13.2,5.8c7.3,7.7,7.3,20.3,0.1,28L64.1,71.7z M80.6,25.8L64.1,42.2
			l-7.4-7.5L53.5,38l9,9c0.4,0.4,1,0.7,1.6,0.7c0.6,0,1.2-0.2,1.6-0.7l18-18.1L80.6,25.8z"/>
	</g>
	<g>
		<path class="st2" d="M45.5,67.5c-1.5-0.3-3-0.5-4.5-0.7c-1.6-0.2-3.1-0.8-4.2-1.9L26.9,55c-1.6-1.6-3.7-2.4-5.8-2.4l-2.4-18.3
			c-0.5-3.5-3.5-6.1-7-6.1c-3.9,0-7.1,3.2-7.1,7.1v34.7c0,2.8,1,5.4,2.8,7.5l15.8,17.8l3.4-3L10.9,74.4c-1.1-1.2-1.7-2.8-1.7-4.5
			V35.2c0-1.4,1.1-2.5,2.6-2.5c1.3,0,2.4,1,2.5,2.2l2.5,19c-0.2,0.1-0.5,0.3-0.7,0.4c-1.7,1.4-2.8,3.5-2.9,5.7s0.7,4.4,2.3,6
			l15.7,15.7l3.2-3.2L18.7,62.8c-0.7-0.7-1-1.6-1-2.6c0-1,0.5-1.8,1.2-2.5c1.3-1.1,3.4-0.9,4.8,0.5l9.8,9.8c1.8,1.8,4.3,3,7,3.2
			c1.4,0.1,2.8,0.3,4.1,0.6c8.2,1.7,14.2,9.1,14.2,17.7v17.7h4.5V89.6C63.3,78.8,55.8,69.6,45.5,67.5z M123.9,28.1
			c-3.5,0-6.5,2.6-7,6.1l-2.4,18.3c-2.1,0-4.2,0.8-5.7,2.4L99,64.9c-1.1,1.1-2.6,1.8-4.2,1.9s-3.2,0.4-4.7,0.7
			c-10.3,2.1-17.7,11.4-17.7,22.1v17.7h4.5V89.6c0-8.6,5.9-16,14.1-17.7c1.3-0.3,2.7-0.5,4.2-0.6c2.7-0.2,5.1-1.4,7-3.2l9.8-9.8
			c1.3-1.3,3.4-1.5,4.7-0.5c0.8,0.6,1.2,1.5,1.2,2.5c0.1,1-0.3,1.9-1,2.6l-15.7,15.7l3.2,3.2L120.2,66c1.6-1.6,2.4-3.8,2.3-6
			s-1.2-4.3-2.9-5.7c-0.2-0.2-0.4-0.3-0.7-0.4l2.5-19c0.2-1.3,1.3-2.2,2.5-2.2c1.4,0,2.6,1.2,2.6,2.5v34.7c0,1.7-0.6,3.3-1.7,4.5
			L109,92.2l3.4,3l15.8-17.8c1.8-2.1,2.9-4.7,2.9-7.5V35.2C131,31.3,127.8,28.1,123.9,28.1z M101.7,42.5c9-9.5,9-24.9,0-34.3
			C97.3,3.5,91.5,1,85.3,1s-12,2.5-16.4,7.2c-0.3,0.4-0.7,0.7-1,1.1c-0.3-0.4-0.7-0.8-1-1.1C62.5,3.5,56.7,1,50.4,1l0,0
			c-6.2,0-12,2.5-16.4,7.2c-9,9.5-9,24.9,0.1,34.4l32.2,30.2c0.4,0.4,1,0.6,1.5,0.6s1.1-0.2,1.5-0.6L101.7,42.5
			C101.6,42.6,101.7,42.5,101.7,42.5z M67.9,68L37.3,39.4C30,31.6,30,19,37.3,11.3c3.5-3.7,8.2-5.8,13.2-5.8s9.6,2.1,13.2,5.8
			c0.9,0.9,1.7,1.9,2.4,3.1c0.4,0.7,1.1,1.1,1.9,1.1l0,0c0.8,0,1.5-0.4,1.9-1.1c0.7-1.1,1.5-2.2,2.4-3.1c3.5-3.7,8.2-5.8,13.2-5.8
			s9.6,2.1,13.2,5.8c7.3,7.7,7.3,20.3,0.1,28L67.9,68z M84.3,22L67.9,38.5L60.4,31l-3.2,3.2l9,9c0.4,0.4,1,0.7,1.6,0.7
			c0.6,0,1.2-0.2,1.6-0.7l18.1-18.1L84.3,22z"/>
	</g>
</g>
</svg>
