<?xml version="1.0" encoding="utf-8"?>
<!-- Generator: Adobe Illustrator 24.1.2, SVG Export Plug-In . SVG Version: 6.00 Build 0)  -->
<svg version="1.1" id="Layer_1" xmlns="http://www.w3.org/2000/svg" xmlns:xlink="http://www.w3.org/1999/xlink" x="0px" y="0px"
	 viewBox="0 0 117 109" style="enable-background:new 0 0 117 109;" xml:space="preserve">
<style type="text/css">
	.st0{opacity:0.75;}
	.st1{fill:#CCCCCC;}
	.st2{fill:#FFFFFF;}
	.st3{fill:#CCCCCC;stroke:#041319;stroke-width:3.9722;stroke-linejoin:round;}
	.st4{fill:#FFFFFF;stroke:#37464C;stroke-width:3.9722;stroke-linejoin:round;}
	.st5{opacity:0.7;}
</style>
<g>
	<g class="st0">
		<path class="st1" d="M56.42,32.84c-5.46,0-9.9-4.44-9.9-9.89s4.44-9.89,9.9-9.89s9.9,4.44,9.9,9.89S61.88,32.84,56.42,32.84z
			 M56.42,17.01c-3.27,0-5.94,2.66-5.94,5.93s2.66,5.93,5.94,5.93s5.94-2.66,5.94-5.93S59.7,17.01,56.42,17.01z"/>
		<rect x="54.44" y="70.42" class="st1" width="3.96" height="35.6"/>
		<path class="st1" d="M64.34,108H48.5c-2.18,0-3.96-1.77-3.96-3.96V43.26L27.46,13.91c-0.02-0.03-0.03-0.05-0.05-0.08
			c-0.81-1.55-0.9-3.36-0.25-4.97c0.64-1.6,1.97-2.84,3.63-3.41c2.66-0.9,5.72,0.34,7.14,2.89L56.42,38.9l18.5-30.57
			c1.41-2.55,4.47-3.79,7.14-2.89c1.66,0.56,2.99,1.81,3.63,3.41c0.65,1.61,0.55,3.42-0.25,4.97c-0.01,0.03-0.03,0.06-0.05,0.08
			L68.3,43.26v60.78C68.3,106.23,66.52,108,64.34,108z M30.91,11.96l17.33,29.77c0.18,0.3,0.27,0.65,0.27,0.99v61.32l15.84,0V42.73
			c0-0.35,0.09-0.69,0.27-0.99l17.33-29.77c0.26-0.52,0.28-1.11,0.07-1.64c-0.22-0.54-0.65-0.94-1.23-1.14
			c-0.86-0.29-1.92,0.18-2.41,1.08c-0.01,0.03-0.03,0.05-0.04,0.08L58.12,43.75c-0.36,0.59-1,0.95-1.69,0.95s-1.34-0.36-1.69-0.95
			L34.52,10.35c-0.02-0.03-0.03-0.05-0.04-0.08c-0.49-0.9-1.55-1.37-2.41-1.08c-0.58,0.2-1.02,0.6-1.23,1.14
			C30.62,10.85,30.65,11.45,30.91,11.96z"/>
		<rect x="82.15" y="70.42" class="st1" width="3.96" height="31.65"/>
		<rect x="26.73" y="70.42" class="st1" width="3.96" height="31.65"/>
		<path class="st1" d="M36.63,104.04H20.79c-2.18,0-3.96-1.77-3.96-3.96V47.23L1.73,21.83c-0.02-0.03-0.04-0.07-0.05-0.1
			c-0.81-1.55-0.9-3.36-0.25-4.97c0.64-1.6,1.97-2.84,3.63-3.41c2.66-0.9,5.71,0.33,7.13,2.88l16.52,26.69l8.68-14.03l3.37,2.08
			L30.39,47.73c-0.36,0.58-1,0.94-1.68,0.94c-0.69,0-1.32-0.35-1.68-0.94L8.8,18.28c-0.02-0.03-0.04-0.06-0.06-0.1
			c-0.49-0.9-1.55-1.37-2.41-1.08c-0.58,0.2-1.02,0.6-1.23,1.14c-0.21,0.52-0.18,1.11,0.07,1.63l15.35,25.8
			c0.18,0.31,0.28,0.65,0.28,1.01v53.4l15.84,0v-53.4c0-0.36,0.1-0.7,0.28-1.01l5.16-8.68l3.4,2.02l-4.89,8.22v52.86
			C40.59,102.27,38.81,104.04,36.63,104.04z"/>
		<path class="st1" d="M92.05,104.04H76.22c-2.18,0-3.96-1.77-3.96-3.96V47.23l-4.89-8.22l3.4-2.02l5.16,8.68
			c0.18,0.31,0.28,0.65,0.28,1.01v53.4l15.84,0l0-53.4c0-0.36,0.1-0.7,0.28-1.01l15.35-25.8c0.25-0.52,0.28-1.11,0.07-1.63
			c-0.22-0.54-0.65-0.94-1.23-1.14c-0.86-0.29-1.92,0.18-2.41,1.08c-0.02,0.03-0.04,0.06-0.06,0.1L85.82,47.72
			c-0.36,0.58-1,0.94-1.68,0.94s-1.32-0.35-1.68-0.94L72.08,30.98l3.37-2.08l8.68,14.03l16.52-26.69c1.42-2.54,4.47-3.78,7.13-2.88
			c1.67,0.56,2.99,1.81,3.63,3.41c0.65,1.61,0.55,3.42-0.25,4.97c-0.02,0.03-0.04,0.07-0.05,0.1l-15.1,25.39v52.86
			C96.01,102.27,94.23,104.04,92.05,104.04z"/>
		<path class="st1" d="M28.71,36.79c-5.46,0-9.9-4.44-9.9-9.89c0-5.45,4.44-9.89,9.9-9.89c2.32,0,4.59,0.85,6.4,2.39l-2.57,3.01
			c-0.77-0.66-2.06-1.44-3.83-1.44c-3.27,0-5.94,2.66-5.94,5.93s2.66,5.93,5.94,5.93s5.94-2.66,5.94-5.93
			c0-0.31-0.04-0.65-0.11-1.07l3.89-0.71c0.12,0.66,0.18,1.22,0.18,1.78C38.61,32.36,34.17,36.79,28.71,36.79z"/>
		<path class="st1" d="M84.13,36.79c-5.46,0-9.9-4.44-9.9-9.89c0-0.55,0.06-1.12,0.17-1.77l3.9,0.71c-0.08,0.42-0.11,0.76-0.11,1.07
			c0,3.27,2.66,5.93,5.94,5.93c3.27,0,5.94-2.66,5.94-5.93s-2.66-5.93-5.94-5.93c-1.76,0-3.05,0.78-3.83,1.44l-2.57-3.01
			c1.81-1.54,4.08-2.39,6.4-2.39c5.46,0,9.9,4.44,9.9,9.89C94.03,32.36,89.59,36.79,84.13,36.79z"/>
	</g>
	<g>
		<path class="st2" d="M60.58,28.69c-5.46,0-9.9-4.44-9.9-9.89s4.44-9.89,9.9-9.89s9.9,4.44,9.9,9.89S66.03,28.69,60.58,28.69z
			 M60.58,12.86c-3.27,0-5.94,2.66-5.94,5.93s2.66,5.93,5.94,5.93s5.94-2.66,5.94-5.93S63.85,12.86,60.58,12.86z"/>
		<rect x="58.6" y="66.27" class="st2" width="3.96" height="35.6"/>
		<path class="st2" d="M68.49,103.85H52.66c-2.18,0-3.96-1.77-3.96-3.96V39.11L31.61,9.76c-0.02-0.03-0.03-0.05-0.05-0.08
			c-0.81-1.55-0.9-3.36-0.25-4.97c0.64-1.6,1.97-2.84,3.63-3.41c2.66-0.9,5.72,0.34,7.14,2.89l18.49,30.57l18.5-30.57
			c1.41-2.55,4.47-3.79,7.14-2.89c1.66,0.56,2.99,1.81,3.63,3.41c0.65,1.61,0.55,3.42-0.25,4.97c-0.01,0.03-0.03,0.06-0.05,0.08
			L72.45,39.11v60.78C72.45,102.07,70.68,103.85,68.49,103.85z M35.06,7.81l17.33,29.77c0.18,0.3,0.27,0.65,0.27,0.99v61.32l15.84,0
			V38.58c0-0.35,0.09-0.69,0.27-0.99L86.09,7.81c0.26-0.52,0.28-1.11,0.07-1.64c-0.22-0.54-0.65-0.94-1.23-1.14
			c-0.86-0.29-1.92,0.18-2.41,1.08c-0.01,0.03-0.03,0.05-0.04,0.08L62.27,39.6c-0.36,0.59-1,0.95-1.69,0.95s-1.34-0.36-1.69-0.95
			L38.67,6.19c-0.02-0.03-0.03-0.05-0.04-0.08c-0.49-0.9-1.55-1.37-2.41-1.08c-0.58,0.2-1.02,0.6-1.23,1.14
			C34.78,6.7,34.8,7.3,35.06,7.81z"/>
		<rect x="86.31" y="66.27" class="st2" width="3.96" height="31.65"/>
		<rect x="30.89" y="66.27" class="st2" width="3.96" height="31.65"/>
		<path class="st2" d="M40.78,99.89H24.95c-2.18,0-3.96-1.77-3.96-3.96V43.08L5.89,17.68c-0.02-0.03-0.04-0.07-0.05-0.1
			c-0.81-1.55-0.9-3.36-0.25-4.97c0.64-1.6,1.97-2.84,3.63-3.41c2.66-0.9,5.71,0.33,7.13,2.88l16.52,26.69l8.68-14.03l3.37,2.08
			L34.55,43.57c-0.36,0.58-1,0.94-1.68,0.94c-0.69,0-1.32-0.35-1.68-0.94L12.95,14.12c-0.02-0.03-0.04-0.06-0.06-0.1
			c-0.49-0.9-1.55-1.37-2.41-1.08c-0.58,0.2-1.02,0.6-1.23,1.14c-0.21,0.52-0.18,1.11,0.07,1.63l15.35,25.8
			c0.18,0.31,0.28,0.65,0.28,1.01v53.4l15.84,0v-53.4c0-0.36,0.1-0.7,0.28-1.01l5.16-8.68l3.4,2.02l-4.89,8.22v52.86
			C44.74,98.12,42.97,99.89,40.78,99.89z"/>
		<path class="st2" d="M96.21,99.89H80.37c-2.18,0-3.96-1.77-3.96-3.96V43.08l-4.89-8.22l3.4-2.02l5.16,8.68
			c0.18,0.31,0.28,0.65,0.28,1.01v53.4l15.84,0l0-53.4c0-0.36,0.1-0.7,0.28-1.01l15.35-25.8c0.25-0.52,0.28-1.11,0.07-1.63
			c-0.22-0.54-0.65-0.94-1.23-1.14c-0.86-0.29-1.92,0.18-2.41,1.08c-0.02,0.03-0.04,0.06-0.06,0.1L89.97,43.57
			c-0.36,0.58-1,0.94-1.68,0.94s-1.32-0.35-1.68-0.94L76.24,26.83l3.37-2.08l8.68,14.03l16.52-26.69c1.42-2.54,4.47-3.78,7.13-2.88
			c1.67,0.56,2.99,1.81,3.63,3.41c0.65,1.61,0.55,3.42-0.25,4.97c-0.02,0.03-0.04,0.07-0.05,0.1l-15.1,25.39v52.86
			C100.17,98.12,98.39,99.89,96.21,99.89z"/>
		<path class="st2" d="M32.87,32.64c-5.46,0-9.9-4.44-9.9-9.89c0-5.45,4.44-9.89,9.9-9.89c2.32,0,4.59,0.85,6.4,2.39l-2.57,3.01
			c-0.77-0.66-2.06-1.44-3.83-1.44c-3.27,0-5.94,2.66-5.94,5.93s2.66,5.93,5.94,5.93s5.94-2.66,5.94-5.93
			c0-0.31-0.04-0.65-0.11-1.07l3.89-0.71c0.12,0.66,0.18,1.22,0.18,1.78C42.76,28.21,38.32,32.64,32.87,32.64z"/>
		<path class="st2" d="M88.29,32.64c-5.46,0-9.9-4.44-9.9-9.89c0-0.55,0.06-1.12,0.17-1.77l3.9,0.71c-0.08,0.42-0.11,0.76-0.11,1.07
			c0,3.27,2.66,5.93,5.94,5.93c3.27,0,5.94-2.66,5.94-5.93s-2.66-5.93-5.94-5.93c-1.76,0-3.05,0.78-3.83,1.44l-2.57-3.01
			c1.81-1.54,4.08-2.39,6.4-2.39c5.46,0,9.9,4.44,9.9,9.89C98.19,28.21,93.75,32.64,88.29,32.64z"/>
	</g>
</g>
</svg>
