<svg xmlns="http://www.w3.org/2000/svg" xmlns:xlink="http://www.w3.org/1999/xlink" viewBox="0 0 844 416" xmlns:v="https://vecta.io/nano"><radialGradient id="A" cx="108.323" cy="27.692" r="26.28" gradientUnits="userSpaceOnUse"><stop offset="0" stop-color="#fff"/><stop offset="1" stop-color="#fff" stop-opacity="0"/></radialGradient><circle cx="108.3" cy="27.7" r="26.3" opacity=".8" fill="url(#A)"/><path d="M131.8 27.1c-12.2-1.3-22-11-23.3-23.3h-.3c-1.3 12.3-11 22.1-23.3 23.4v.2c12.3 1.2 22.2 11 23.4 23.3h.3c1.3-12.2 11-22 23.2-23.4v-.2c0 .1 0 .1 0 0z" fill="#fff"/><radialGradient id="B" cx="816.628" cy="321.079" r="26.28" gradientUnits="userSpaceOnUse"><stop offset="0" stop-color="#fff"/><stop offset="1" stop-color="#fff" stop-opacity="0"/></radialGradient><circle cx="816.6" cy="321.1" r="26.3" opacity=".8" fill="url(#B)"/><path d="M840.1 320.5c-12.2-1.3-22-11-23.3-23.3h-.3c-1.3 12.3-11 22.1-23.3 23.4v.2c12.3 1.2 22.2 11 23.4 23.3h.3c1.3-12.2 11-22 23.2-23.4v-.2c0 .1 0 0 0 0z" fill="#fff"/><radialGradient id="C" cx="17.64" cy="133.73" r="16.548" gradientUnits="userSpaceOnUse"><stop offset="0" stop-color="#fff"/><stop offset="1" stop-color="#fff" stop-opacity="0"/></radialGradient><circle cx="17.6" cy="133.7" r="16.5" opacity=".8" fill="url(#C)"/><path d="M32.4 133.4c-7.7-.8-13.8-6.9-14.7-14.6h-.2c-.8 7.7-6.9 13.9-14.7 14.7v.2c7.7.8 14 6.9 14.8 14.7h.1c.8-7.7 6.9-13.9 14.6-14.7.1-.2.1-.2.1-.3z" fill="#fff"/><radialGradient id="D" cx="672.028" cy="35.208" r="16.548" gradientUnits="userSpaceOnUse"><stop offset="0" stop-color="#fff"/><stop offset="1" stop-color="#fff" stop-opacity="0"/></radialGradient><circle cx="672" cy="35.2" r="16.5" opacity=".8" fill="url(#D)"/><path d="M686.8 34.8c-7.7-.8-13.8-6.9-14.7-14.6h-.2c-.8 7.7-6.9 13.9-14.7 14.7v.2c7.7.8 14 6.9 14.8 14.7h.1c.8-7.7 6.9-13.9 14.6-14.7.1-.1.1-.1.1-.3 0 .1 0 .1 0 0z" fill="#fff"/><radialGradient id="E" cx="758.1" cy="403.887" r="10.701" gradientUnits="userSpaceOnUse"><stop offset="0" stop-color="#fff"/><stop offset="1" stop-color="#fff" stop-opacity="0"/></radialGradient><circle cx="758.1" cy="403.9" r="10.7" opacity=".8" fill="url(#E)"/><path d="M767.7 403.6c-5-.5-8.9-4.5-9.5-9.5h-.1a10.65 10.65 0 0 1-9.5 9.5v.2a10.65 10.65 0 0 1 9.5 9.5h.1a10.65 10.65 0 0 1 9.5-9.5v-.2c0 .1 0 .1 0 0z" fill="#fff"/><radialGradient id="F" cx="95.272" cy="397.745" r="10.701" gradientUnits="userSpaceOnUse"><stop offset="0" stop-color="#fff"/><stop offset="1" stop-color="#fff" stop-opacity="0"/></radialGradient><circle cx="95.3" cy="397.7" r="10.7" opacity=".8" fill="url(#F)"/><use xlink:href="#I" fill="#fff"/><radialGradient id="G" cx="753.023" cy="19.955" r="10.701" gradientUnits="userSpaceOnUse"><stop offset="0" stop-color="#fff"/><stop offset="1" stop-color="#fff" stop-opacity="0"/></radialGradient><circle cx="753" cy="20" r="10.7" opacity=".8" fill="url(#G)"/><use xlink:href="#I" x="657.8" y="-377.8" fill="#fff"/><defs ><path id="I" d="M104.8 397.5c-5-.5-8.9-4.5-9.5-9.5h-.1a10.65 10.65 0 0 1-9.5 9.5v.2a10.65 10.65 0 0 1 9.5 9.5h.1a10.65 10.65 0 0 1 9.5-9.5v-.2c0 .1 0 0 0 0z"/></defs></svg>