<?xml version="1.0" encoding="utf-8"?>
<!-- Generator: Adobe Illustrator 24.1.2, SVG Export Plug-In . SVG Version: 6.00 Build 0)  -->
<svg version="1.1" id="Layer_1" xmlns="http://www.w3.org/2000/svg" xmlns:xlink="http://www.w3.org/1999/xlink" x="0px" y="0px"
	 viewBox="0 0 109 115" style="enable-background:new 0 0 109 115;" xml:space="preserve">
<style type="text/css">
	.st0{opacity:0.75;}
	.st1{fill:#CCCCCC;}
	.st2{fill:#FFFFFF;}
	.st3{fill:#CCCCCC;stroke:#041319;stroke-width:3.9722;stroke-linejoin:round;}
	.st4{fill:#FFFFFF;stroke:#37464C;stroke-width:3.9722;stroke-linejoin:round;}
	.st5{opacity:0.7;}
</style>
<g>
	<g class="st0">
		<path class="st1" d="M61.46,114h-4.32c0-26.08,15.33-42.62,28.18-51.9c0.96-0.7,2.31-0.48,3.01,0.48l4.3,5.89l6.88-21.12H77.23
			l3.48,4.77c0.34,0.46,0.48,1.04,0.38,1.6c-0.09,0.56-0.4,1.07-0.87,1.4C59.47,69.99,48.5,90.35,48.5,114h-4.32
			c0-24.41,10.97-45.49,31.77-61.09l-4.71-6.45c-0.48-0.65-0.55-1.52-0.18-2.24c0.37-0.72,1.11-1.17,1.92-1.17h29.5
			c0.69,0,1.34,0.33,1.75,0.89c0.41,0.56,0.52,1.27,0.31,1.93l-9.1,27.95c-0.25,0.77-0.91,1.33-1.72,1.46
			c-0.8,0.13-1.61-0.2-2.09-0.86l-5.51-7.55C69.76,79.32,61.46,95.17,61.46,114z"/>
		<path class="st1" d="M48.5,79.6h-4.32V34.44h-8.64c-0.8,0-1.53-0.44-1.9-1.14c-0.38-0.7-0.33-1.55,0.11-2.21L51.03,5.3
			c0.4-0.6,1.07-0.96,1.8-0.96s1.4,0.36,1.8,0.96l17.27,25.8c0.44,0.66,0.48,1.51,0.11,2.21c-0.38,0.7-1.11,1.14-1.9,1.14h-8.64
			v38.4h-4.32V32.29c0-1.19,0.97-2.15,2.16-2.15h6.76L52.82,10.37L39.58,30.14h6.76c1.19,0,2.16,0.96,2.16,2.15V79.6z"/>
		<path class="st1" d="M48.5,114h-4.32c0-18.83-8.3-34.68-24.67-47.14l-5.51,7.55c-0.48,0.65-1.29,0.99-2.09,0.86
			c-0.8-0.13-1.47-0.69-1.72-1.46l-9.1-27.95c-0.21-0.65-0.1-1.37,0.31-1.93c0.41-0.56,1.06-0.89,1.75-0.89h29.5
			c0.81,0,1.56,0.45,1.92,1.17s0.3,1.59-0.18,2.24l-4.73,6.48c7.35,5.52,13.54,11.8,18.43,18.71l-3.53,2.48
			c-4.99-7.05-11.44-13.44-19.17-18.97c-0.47-0.33-0.78-0.84-0.87-1.4c-0.09-0.56,0.05-1.14,0.38-1.6l3.5-4.79H6.13l6.88,21.12
			l4.3-5.89c0.7-0.96,2.05-1.17,3.01-0.48C33.18,71.38,48.5,87.92,48.5,114z"/>
	</g>
	<g>
		<path class="st2" d="M64.81,110.66H60.5c0-26.08,15.33-42.62,28.18-51.9c0.96-0.7,2.31-0.48,3.01,0.48l4.3,5.89L102.87,44H80.58
			l3.48,4.77c0.34,0.46,0.48,1.04,0.38,1.6c-0.09,0.56-0.4,1.07-0.87,1.4c-20.75,14.87-31.72,35.23-31.72,58.88h-4.32
			c0-24.41,10.97-45.49,31.77-61.09l-4.71-6.45c-0.48-0.65-0.55-1.52-0.18-2.24c0.37-0.72,1.11-1.17,1.92-1.17h29.5
			c0.69,0,1.34,0.33,1.75,0.89c0.41,0.56,0.52,1.27,0.31,1.93l-9.1,27.95c-0.25,0.77-0.91,1.33-1.72,1.46
			c-0.8,0.13-1.61-0.2-2.09-0.86l-5.51-7.55C73.11,75.98,64.81,91.83,64.81,110.66z"/>
		<path class="st2" d="M51.86,76.26h-4.32V31.1H38.9c-0.8,0-1.53-0.44-1.9-1.14c-0.38-0.7-0.33-1.55,0.11-2.21l17.27-25.8
			c0.4-0.6,1.07-0.96,1.8-0.96c0.72,0,1.4,0.36,1.8,0.96l17.27,25.8c0.44,0.66,0.48,1.51,0.11,2.21c-0.38,0.7-1.11,1.14-1.9,1.14
			h-8.64v38.4H60.5V28.95c0-1.19,0.97-2.15,2.16-2.15h6.76L56.18,7.03L42.94,26.8h6.76c1.19,0,2.16,0.96,2.16,2.15V76.26z"/>
		<path class="st2" d="M51.86,110.66h-4.32c0-18.83-8.3-34.68-24.67-47.14l-5.51,7.55c-0.48,0.65-1.29,0.99-2.09,0.86
			c-0.8-0.13-1.47-0.69-1.72-1.46l-9.1-27.95c-0.21-0.65-0.1-1.37,0.31-1.93c0.41-0.56,1.06-0.89,1.75-0.89h29.5
			c0.81,0,1.56,0.45,1.92,1.17c0.37,0.72,0.3,1.59-0.18,2.24l-4.73,6.48c7.35,5.52,13.54,11.8,18.43,18.71l-3.53,2.48
			c-4.99-7.05-11.44-13.44-19.17-18.97c-0.47-0.33-0.78-0.84-0.87-1.4c-0.09-0.56,0.05-1.14,0.38-1.6l3.5-4.79H9.48l6.88,21.12
			l4.3-5.89c0.7-0.96,2.05-1.17,3.01-0.48C36.53,68.04,51.86,84.58,51.86,110.66z"/>
	</g>
</g>
</svg>
