<svg xmlns="http://www.w3.org/2000/svg" viewBox="0 0 751 350" xmlns:v="https://vecta.io/nano"><radialGradient id="A" cx="35.773" cy="269.433" r="34.299" gradientUnits="userSpaceOnUse"><stop offset="0" stop-color="#fff"/><stop offset="1" stop-color="#fff" stop-opacity="0"/></radialGradient><circle cx="35.8" cy="269.4" r="34.3" opacity=".8" fill="url(#A)"/><path d="M66.4 268.7c-16-1.7-28.7-14.4-30.4-30.4h-.4c-1.7 16-14.4 28.8-30.4 30.5v.4c16 1.6 28.9 14.4 30.6 30.4h.4c1.7-16 14.3-28.7 30.3-30.5v-.2c-.1-.1-.1-.2-.1-.2z" fill="#fff"/><radialGradient id="B" cx="653.315" cy="35.38" r="34.299" gradientUnits="userSpaceOnUse"><stop offset="0" stop-color="#fff"/><stop offset="1" stop-color="#fff" stop-opacity="0"/></radialGradient><circle cx="653.3" cy="35.4" r="34.3" opacity=".8" fill="url(#B)"/><path d="M683.9 34.6c-16-1.7-28.7-14.4-30.4-30.4h-.4c-1.7 16-14.4 28.8-30.4 30.5v.4c16 1.6 28.9 14.4 30.6 30.4h.4c1.7-16 14.3-28.7 30.3-30.5v-.2c-.1 0-.1-.1-.1-.2z" fill="#fff"/><radialGradient id="C" cx="145.804" cy="54.812" r="21.597" gradientUnits="userSpaceOnUse"><stop offset="0" stop-color="#fff"/><stop offset="1" stop-color="#fff" stop-opacity="0"/></radialGradient><circle cx="145.8" cy="54.8" r="21.6" opacity=".8" fill="url(#C)"/><path d="M165.1 54.3c-10.1-1.1-18.1-9.1-19.2-19.1h-.3a21.7 21.7 0 0 1-19.2 19.2v.2c10.1 1 18.2 9 19.3 19.1h.3c1.1-10.1 9-18.1 19.1-19.2v-.1c0 0 0 0 0-.1z" fill="#fff"/><radialGradient id="D" cx="674.911" cy="326.058" r="21.597" gradientUnits="userSpaceOnUse"><stop offset="0" stop-color="#fff"/><stop offset="1" stop-color="#fff" stop-opacity="0"/></radialGradient><circle cx="674.9" cy="326.1" r="21.6" opacity=".8" fill="url(#D)"/><path d="M694.2 325.6c-10.1-1.1-18.1-9.1-19.2-19.1h-.3a21.7 21.7 0 0 1-19.2 19.2v.2c10.1 1 18.2 9 19.3 19.1h.3c1.1-10.1 9-18.1 19.1-19.2v-.1c0 0 0-.1 0-.1z" fill="#fff"/><radialGradient id="E" cx="105.575" cy="334.952" r="13.967" gradientUnits="userSpaceOnUse"><stop offset="0" stop-color="#fff"/><stop offset="1" stop-color="#fff" stop-opacity="0"/></radialGradient><circle cx="105.6" cy="335" r="14" opacity=".8" fill="url(#E)"/><path d="M118 334.6a14.04 14.04 0 0 1-12.4-12.4h-.2A14.04 14.04 0 0 1 93 334.6v.2c6.5.6 11.8 5.9 12.5 12.4h.1c.7-6.5 5.8-11.7 12.3-12.4.1 0 .1 0 .1-.2 0 .1 0 .1 0 0z" fill="#fff"/><radialGradient id="F" cx="735.559" cy="105.882" r="13.967" gradientUnits="userSpaceOnUse"><stop offset="0" stop-color="#fff"/><stop offset="1" stop-color="#fff" stop-opacity="0"/></radialGradient><circle cx="735.6" cy="105.9" r="14" opacity=".8" fill="url(#F)"/><path d="M748 105.6a14.04 14.04 0 0 1-12.4-12.4h-.2a14.04 14.04 0 0 1-12.4 12.4v.2c6.5.6 11.8 5.9 12.5 12.4h.1c.7-6.5 5.8-11.7 12.3-12.4.1-.1.1-.1.1-.2z" fill="#fff"/></svg>