<?xml version="1.0" encoding="utf-8"?>
<!-- Generator: Adobe Illustrator 24.2.1, SVG Export Plug-In . SVG Version: 6.00 Build 0)  -->
<svg version="1.1" id="Layer_1" xmlns="http://www.w3.org/2000/svg" xmlns:xlink="http://www.w3.org/1999/xlink" x="0px" y="0px"
	 viewBox="0 0 117 109" style="enable-background:new 0 0 117 109;" xml:space="preserve">
<style type="text/css">
	.st0{opacity:0.1;}
	.st1{fill:#FFFFFF;}
</style>
<g>
	<path class="st0" d="M111.4,16.8c-0.6-1.6-2-2.9-3.6-3.4c-2.7-0.9-5.7,0.3-7.1,2.9L94,26.9c0,0,0,0,0,0c0-5.4-4.4-9.9-9.9-9.9
		c-0.2,0-0.4,0-0.6,0l1.8-3.1c0,0,0-0.1,0-0.1c0.8-1.5,0.9-3.4,0.2-5c-0.6-1.6-2-2.8-3.6-3.4c-2.7-0.9-5.7,0.3-7.1,2.9l-8.6,14.2
		c-0.2-5.3-4.5-9.5-9.9-9.5c-5.3,0-9.7,4.2-9.9,9.5L37.9,8.3c-1.4-2.6-4.5-3.8-7.1-2.9c-1.7,0.6-3,1.8-3.6,3.4
		c-0.6,1.6-0.6,3.4,0.2,5c0,0,0,0,0.1,0.1l1.8,3.1c-0.2,0-0.4,0-0.6,0c-5.5,0-9.9,4.4-9.9,9.9c0,0,0,0,0,0l-6.6-10.7
		c-1.4-2.5-4.5-3.8-7.1-2.9c-1.7,0.6-3,1.8-3.6,3.4c-0.6,1.6-0.6,3.4,0.2,5c0,0,0,0.1,0,0.1l15.1,25.4v52.9c0,2.2,1.8,4,4,4h15.8
		c2.2,0,4-1.8,4-3.9V47.2l3.2-5.3l0.8,1.3V104c0,2.2,1.8,4,4,4h15.8c2.2,0,4-1.8,4-4V43.3l0.8-1.4l3.2,5.3v52.9c0,2.2,1.8,4,4,4H92
		c2.2,0,4-1.8,4-4V47.2l15.1-25.4c0,0,0-0.1,0.1-0.1C112,20.2,112.1,18.4,111.4,16.8z M84.1,21c3.3,0,5.9,2.7,5.9,5.9
		c0,3.3-2.7,5.9-5.9,5.9c-3.3,0-5.9-2.7-5.9-5.9c0-0.2,0-0.5,0.1-0.7l2.3-3.9C81.3,21.6,82.5,21,84.1,21z M88.6,35.7l-4.5,7.2
		l-4.5-7.2c1.3,0.7,2.9,1.1,4.5,1.1C85.7,36.8,87.3,36.4,88.6,35.7z M56.4,17c3.3,0,5.9,2.7,5.9,5.9s-2.7,5.9-5.9,5.9
		c-3.3,0-5.9-2.7-5.9-5.9S53.2,17,56.4,17z M56.4,32.8c1.5,0,3-0.4,4.3-1l-4.3,7l-4.3-7C53.5,32.5,54.9,32.8,56.4,32.8z M28.7,21
		c1.6,0,2.8,0.6,3.6,1.2l2.3,3.9c0,0.3,0.1,0.5,0.1,0.7c0,3.3-2.7,5.9-5.9,5.9c-3.3,0-5.9-2.7-5.9-5.9C22.8,23.6,25.4,21,28.7,21z
		 M28.7,36.8c1.6,0,3.1-0.4,4.5-1.1l-4.5,7.2l-4.5-7.2C25.6,36.4,27.1,36.8,28.7,36.8z M36.9,45.7c-0.2,0.3-0.3,0.7-0.3,1v53.4h-6
		V70.4h-4v29.7h-5.9V46.7c0-0.4-0.1-0.7-0.3-1L5.2,19.9c-0.2-0.5-0.3-1.1-0.1-1.6c0.2-0.5,0.7-0.9,1.2-1.1c0.9-0.3,1.9,0.2,2.4,1.1
		c0,0,0,0.1,0.1,0.1L27,47.7c0.4,0.6,1,0.9,1.7,0.9c0.7,0,1.3-0.4,1.7-0.9l8.6-14l2.5,4.2L36.9,45.7z M64.6,41.7
		c-0.2,0.3-0.3,0.6-0.3,1V104h-5.9V70.4h-4V104h-5.9V42.7c0-0.3-0.1-0.7-0.3-1L30.9,12c-0.3-0.5-0.3-1.1-0.1-1.6
		c0.2-0.5,0.6-0.9,1.2-1.1c0.9-0.3,1.9,0.2,2.4,1.1c0,0,0,0,0,0.1l20.2,33.4c0.4,0.6,1,1,1.7,1s1.3-0.4,1.7-1l20.2-33.4
		c0,0,0,0,0-0.1c0.5-0.9,1.5-1.4,2.4-1.1c0.6,0.2,1,0.6,1.2,1.1c0.2,0.5,0.2,1.1-0.1,1.6L64.6,41.7z M107.7,19.9L92.3,45.7
		c-0.2,0.3-0.3,0.7-0.3,1v53.4h-5.9V70.4h-4v29.7h-5.9V46.7c0-0.4-0.1-0.7-0.3-1L71.4,38l2.5-4.2l8.6,13.9c0.4,0.6,1,0.9,1.7,0.9
		s1.3-0.4,1.7-0.9L104,18.3c0,0,0-0.1,0.1-0.1c0.5-0.9,1.5-1.4,2.4-1.1c0.6,0.2,1,0.6,1.2,1.1C108,18.8,107.9,19.3,107.7,19.9z"/>
	<g>
		<path class="st1" d="M60.6,28.7c-5.5,0-9.9-4.4-9.9-9.9s4.4-9.9,9.9-9.9s9.9,4.4,9.9,9.9S66,28.7,60.6,28.7z M60.6,12.9
			c-3.3,0-5.9,2.7-5.9,5.9s2.7,5.9,5.9,5.9s5.9-2.7,5.9-5.9S63.8,12.9,60.6,12.9z"/>
		<rect x="58.6" y="66.3" class="st1" width="4" height="35.6"/>
		<path class="st1" d="M68.5,103.8H52.7c-2.2,0-4-1.8-4-4V39.1L31.6,9.8c0,0,0-0.1,0-0.1c-0.8-1.6-0.9-3.4-0.2-5
			c0.6-1.6,2-2.8,3.6-3.4c2.7-0.9,5.7,0.3,7.1,2.9l18.5,30.6L79.1,4.2c1.4-2.5,4.5-3.8,7.1-2.9c1.7,0.6,3,1.8,3.6,3.4
			c0.7,1.6,0.6,3.4-0.2,5c0,0,0,0.1-0.1,0.1L72.4,39.1v60.8C72.4,102.1,70.7,103.8,68.5,103.8z M35.1,7.8l17.3,29.8
			c0.2,0.3,0.3,0.7,0.3,1v61.3h15.8V38.6c0-0.3,0.1-0.7,0.3-1L86.1,7.8c0.3-0.5,0.3-1.1,0.1-1.6c-0.2-0.5-0.7-0.9-1.2-1.1
			c-0.9-0.3-1.9,0.2-2.4,1.1c0,0,0,0.1,0,0.1L62.3,39.6c-0.4,0.6-1,1-1.7,1s-1.3-0.4-1.7-1L38.7,6.2c0,0,0-0.1,0-0.1
			c-0.5-0.9-1.5-1.4-2.4-1.1c-0.6,0.2-1,0.6-1.2,1.1C34.8,6.7,34.8,7.3,35.1,7.8z"/>
		<rect x="86.3" y="66.3" class="st1" width="4" height="31.7"/>
		<rect x="30.9" y="66.3" class="st1" width="4" height="31.7"/>
		<path class="st1" d="M40.8,99.9H25c-2.2,0-4-1.8-4-4V43.1L5.9,17.7c0,0,0-0.1-0.1-0.1c-0.8-1.5-0.9-3.4-0.2-5
			c0.6-1.6,2-2.8,3.6-3.4c2.7-0.9,5.7,0.3,7.1,2.9l16.5,26.7l8.7-14l3.4,2.1L34.5,43.6c-0.4,0.6-1,0.9-1.7,0.9
			c-0.7,0-1.3-0.3-1.7-0.9L12.9,14.1c0,0,0-0.1-0.1-0.1c-0.5-0.9-1.6-1.4-2.4-1.1c-0.6,0.2-1,0.6-1.2,1.1c-0.2,0.5-0.2,1.1,0.1,1.6
			l15.4,25.8c0.2,0.3,0.3,0.7,0.3,1v53.4h15.8V42.5c0-0.4,0.1-0.7,0.3-1l5.2-8.7l3.4,2l-4.9,8.2v52.9C44.7,98.1,43,99.9,40.8,99.9z"
			/>
		<path class="st1" d="M96.2,99.9H80.4c-2.2,0-4-1.8-4-4V43.1l-4.9-8.2l3.4-2l5.2,8.7c0.2,0.3,0.3,0.7,0.3,1v53.4h15.8V42.5
			c0-0.4,0.1-0.7,0.3-1l15.3-25.8c0.2-0.5,0.3-1.1,0.1-1.6c-0.2-0.5-0.7-0.9-1.2-1.1c-0.9-0.3-1.9,0.2-2.4,1.1c0,0,0,0.1-0.1,0.1
			L90,43.6c-0.4,0.6-1,0.9-1.7,0.9s-1.3-0.3-1.7-0.9L76.2,26.8l3.4-2.1l8.7,14l16.5-26.7c1.4-2.5,4.5-3.8,7.1-2.9
			c1.7,0.6,3,1.8,3.6,3.4c0.7,1.6,0.6,3.4-0.2,5c0,0,0,0.1-0.1,0.1l-15.1,25.4v52.9C100.2,98.1,98.4,99.9,96.2,99.9z"/>
		<path class="st1" d="M32.9,32.6c-5.5,0-9.9-4.4-9.9-9.9s4.4-9.9,9.9-9.9c2.3,0,4.6,0.9,6.4,2.4l-2.6,3c-0.8-0.7-2.1-1.4-3.8-1.4
			c-3.3,0-5.9,2.7-5.9,5.9s2.7,5.9,5.9,5.9s5.9-2.7,5.9-5.9c0-0.3,0-0.6-0.1-1.1l3.9-0.7c0.1,0.7,0.2,1.2,0.2,1.8
			C42.8,28.2,38.3,32.6,32.9,32.6z"/>
		<path class="st1" d="M88.3,32.6c-5.5,0-9.9-4.4-9.9-9.9c0-0.5,0.1-1.1,0.2-1.8l3.9,0.7c-0.1,0.4-0.1,0.8-0.1,1.1
			c0,3.3,2.7,5.9,5.9,5.9c3.3,0,5.9-2.7,5.9-5.9s-2.7-5.9-5.9-5.9c-1.8,0-3.1,0.8-3.8,1.4l-2.6-3c1.8-1.5,4.1-2.4,6.4-2.4
			c5.5,0,9.9,4.4,9.9,9.9S93.8,32.6,88.3,32.6z"/>
	</g>
</g>
</svg>
