<?xml version="1.0" encoding="utf-8"?>
<!-- Generator: Adobe Illustrator 24.2.1, SVG Export Plug-In . SVG Version: 6.00 Build 0)  -->
<svg version="1.1" id="Layer_1" xmlns="http://www.w3.org/2000/svg" xmlns:xlink="http://www.w3.org/1999/xlink" x="0px" y="0px"
	 viewBox="0 0 109 115" style="enable-background:new 0 0 109 115;" xml:space="preserve">
<style type="text/css">
	.st0{opacity:0.1;}
	.st1{fill:#FFFFFF;}
</style>
<g>
	<path class="st0" d="M104.2,43.9c-0.4-0.6-1.1-0.9-1.8-0.9H73c-0.8,0-1.5,0.5-1.9,1.2c-0.4,0.7-0.3,1.6,0.2,2.2l4.7,6.4
		c-5.5,4.1-10.4,8.7-14.5,13.6v-32h8.6c0.8,0,1.5-0.4,1.9-1.1c0.4-0.7,0.3-1.5-0.1-2.2L54.6,5.3c-0.4-0.6-1.1-1-1.8-1
		c-0.7,0-1.4,0.4-1.8,1L33.8,31.1c-0.4,0.7-0.5,1.5-0.1,2.2c0.4,0.7,1.1,1.1,1.9,1.1h8.6v32.1c-4.1-4.9-9-9.5-14.5-13.6l4.7-6.5
		c0.5-0.7,0.5-1.5,0.2-2.2c-0.4-0.7-1.1-1.2-1.9-1.2H3.2c-0.7,0-1.3,0.3-1.8,0.9c-0.4,0.6-0.5,1.3-0.3,1.9l9.1,28
		c0.2,0.8,0.9,1.3,1.7,1.5c0.8,0.1,1.6-0.2,2.1-0.9l5.5-7.5C35.9,79.3,44.2,95.2,44.2,114h4.3c0-23.7,11-44,31.7-58.9
		c0.5-0.3,0.8-0.8,0.9-1.4c0.1-0.6,0-1.1-0.4-1.6l-3.5-4.8h22.3l-6.9,21.1l-4.3-5.9c-0.7-1-2-1.2-3-0.5
		C72.5,71.4,57.1,87.9,57.1,114h4.3c0-18.8,8.3-34.7,24.7-47.1l5.5,7.5c0.5,0.7,1.3,1,2.1,0.9c0.8-0.1,1.5-0.7,1.7-1.5l9.1-28
		C104.8,45.2,104.6,44.5,104.2,43.9z M46.1,96.9c-4.8-16.5-16-27.7-25.8-34.8c-1-0.7-2.3-0.5-3,0.5L13,68.5L6.1,47.4h22.3l-3.5,4.8
		c-0.3,0.5-0.5,1-0.4,1.6c0.1,0.6,0.4,1.1,0.9,1.4c7.5,5.4,13.9,11.6,18.8,18.5v6h4.3V32.3c0-1.2-1-2.1-2.2-2.1h-6.8l13.2-19.8
		l13.2,19.8h-6.8c-1.2,0-2.2,1-2.2,2.1v39.8C51.9,79.7,48.2,88,46.1,96.9z"/>
	<g>
		<path class="st1" d="M64.8,110.7h-4.3c0-26.1,15.3-42.6,28.2-51.9c1-0.7,2.3-0.5,3,0.5l4.3,5.9l6.9-21.1H80.6l3.5,4.8
			c0.3,0.5,0.5,1,0.4,1.6c-0.1,0.6-0.4,1.1-0.9,1.4C62.8,66.6,51.8,87,51.8,110.7h-4.3c0-24.4,11-45.5,31.8-61.1l-4.7-6.5
			c-0.5-0.7-0.6-1.5-0.2-2.2s1.1-1.2,1.9-1.2h29.5c0.7,0,1.3,0.3,1.8,0.9c0.4,0.6,0.5,1.3,0.3,1.9l-9.1,28c-0.2,0.8-0.9,1.3-1.7,1.5
			c-0.8,0.1-1.6-0.2-2.1-0.9l-5.5-7.5C73.1,76,64.8,91.8,64.8,110.7z"/>
		<path class="st1" d="M51.9,76.3h-4.3V31.1h-8.6c-0.8,0-1.5-0.4-1.9-1.1c-0.4-0.7-0.3-1.5,0.1-2.2L54.4,2c0.4-0.6,1.1-1,1.8-1
			c0.7,0,1.4,0.4,1.8,1l17.3,25.8c0.4,0.7,0.5,1.5,0.1,2.2c-0.4,0.7-1.1,1.1-1.9,1.1h-8.6v38.4h-4.3V29c0-1.2,1-2.1,2.2-2.1h6.8
			L56.2,7L42.9,26.8h6.8c1.2,0,2.2,1,2.2,2.1C51.9,28.9,51.9,76.3,51.9,76.3z"/>
		<path class="st1" d="M51.9,110.7h-4.3c0-18.8-8.3-34.7-24.7-47.1l-5.5,7.6c-0.5,0.7-1.3,1-2.1,0.9c-0.8-0.1-1.5-0.7-1.7-1.5
			l-9.1-28c-0.2-0.7-0.1-1.4,0.3-1.9s1.1-0.9,1.8-0.9H36c0.8,0,1.6,0.5,1.9,1.2c0.4,0.7,0.3,1.6-0.2,2.2L33,49.6
			c7.3,5.5,13.5,11.8,18.4,18.7l-3.5,2.5c-5-7-11.4-13.4-19.2-19c-0.5-0.3-0.8-0.8-0.9-1.4s0-1.1,0.4-1.6l3.5-4.8H9.5l6.9,21.1
			l4.3-5.9c0.7-1,2-1.2,3-0.5C36.5,68,51.9,84.6,51.9,110.7z"/>
	</g>
</g>
</svg>
